<svg width="594" height="97" viewBox="0 0 594 97" fill="none" xmlns="http://www.w3.org/2000/svg">
<path d="M14.0824 14.0649C23.3521 4.51028 36.882 -0.476746 50.1311 0.0359394C57.9026 0.548624 65.6742 2.55277 72.3221 6.70085C75.0843 8.42534 77.8464 10.243 80 12.6666C77.8933 15.0902 75.4588 17.2342 73.2116 19.5646C70.8708 21.8484 68.6236 24.272 66.1891 26.4625C62.397 23.0136 57.6685 20.4035 52.5187 19.7044C47.1816 19.0985 41.5169 19.3315 36.648 21.7551C31.1704 24.272 26.6292 28.3734 23.5861 33.5469C22.5562 35.2714 21.8539 37.1823 21.0112 39C15.5805 35.0383 10.3839 30.7504 5 26.6956C7.20037 21.9416 10.2903 17.6537 14.0824 14.0649Z" fill="#EA4335"/>
<path d="M5.09982 27C10.4464 31.0796 15.607 35.3468 21 39.3795C20.2096 43.2715 19.0008 47.2574 19.7447 51.2901C19.9772 53.494 20.6281 55.651 21 57.8081C16.8157 61.1374 12.5385 64.4198 8.35424 67.7961C7.28493 68.6401 6.16913 69.3904 4.96035 70C2.03137 64.1854 0.357663 57.7612 0.078712 51.2432C-0.153747 46.976 0.125187 42.6619 0.962038 38.4417C1.98486 34.5496 3.05418 30.5638 5.09982 27Z" fill="#FBBC04"/>
<path d="M48.2577 40.035C61.471 40.035 74.6843 40.035 87.8976 40.035C89.5844 40.035 91.2712 39.8949 92.958 40.1751C95.863 54.5097 92.7237 70.3385 83.1651 81.6381C82.1343 82.8521 81.1035 84.2062 79.6978 85C74.4032 81.1245 69.3896 76.9689 64.1418 73.0467C68.7336 69.6381 72.2478 64.4553 72.8569 58.7121C64.6103 58.572 56.3637 58.7588 48.1171 58.6187C47.8829 53.7626 48.1171 48.8599 48.0234 44.0039C48.0703 42.6965 47.836 41.3424 48.2577 40.035Z" fill="#4284F4"/>
<path d="M8.46876 67.9724C12.6875 64.6014 17 61.3241 21.2188 58C22.25 59.9196 22.9062 62.0732 24.125 63.8992C27.9687 70.1729 34.0625 74.8079 41.1875 76.7743C46.1563 77.8511 51.3125 77.8511 56.2344 76.6807C59.1406 75.9316 61.8125 74.527 64.4375 73.0756C69.6875 77.0084 74.7031 81.2221 80 85.0612C78.7344 86.6999 77 87.8235 75.3125 88.994C67.4375 94.5654 57.6875 96.7659 48.1719 97C38.5625 96.8127 28.9531 94.0972 21.0313 88.5726C14.1875 83.8908 8.65625 77.5702 5 70.1729C6.26563 69.5642 7.39064 68.8151 8.46876 67.9724Z" fill="#34A853"/>
<path d="M371.553 20.1246C377.753 19.9246 383.953 19.9246 390.153 20.1246C394.953 20.1246 399.353 23.1246 402.053 27.0246C404.253 30.4246 404.353 34.6246 403.753 38.5246C403.153 42.4246 400.253 45.5246 397.153 47.7246C391.553 51.2246 384.853 49.6246 378.653 50.0246C378.053 56.5246 378.653 63.1246 378.453 69.6246C376.153 69.8246 373.853 69.8246 371.553 69.6246C371.453 53.1246 371.353 36.6246 371.553 20.1246ZM378.553 27.0246C378.153 32.3246 378.053 37.7246 378.453 43.1246C382.753 43.1246 387.053 43.4246 391.353 42.9246C397.153 40.9246 398.653 32.5246 393.953 28.6246C389.453 25.7246 383.653 27.4246 378.553 27.0246ZM474.953 33.5246C475.053 30.4246 474.653 27.3246 475.353 24.3246C477.553 24.3246 479.753 24.3246 482.053 24.4246C482.253 27.4246 482.053 30.4246 482.253 33.4246C484.553 34.6246 487.553 33.7246 490.253 34.1246C490.353 36.2246 490.353 38.3246 490.253 40.5246C487.553 40.6246 484.853 40.7246 482.253 41.0246C482.253 47.4246 482.153 53.8246 482.253 60.3246C482.153 62.0246 482.953 63.9246 484.753 64.3246C486.753 64.3246 488.753 64.3246 490.753 64.1246C490.953 66.3246 490.753 68.5246 490.253 70.6246C487.053 70.8246 483.753 71.2246 480.553 70.3246C478.053 68.8246 475.453 66.5246 475.353 63.4246C474.653 56.0246 475.553 48.6246 474.853 41.2246C472.853 40.9246 470.753 40.6246 468.753 40.3246C468.753 38.3246 468.753 36.3246 468.853 34.3246C470.853 33.9246 473.053 34.1246 474.953 33.5246ZM409.753 40.4246C415.253 30.1246 432.753 30.1246 438.353 40.4246C439.953 43.8246 439.553 47.7246 439.653 51.3246C439.553 57.4246 439.753 63.5246 439.553 69.6246C437.753 69.7246 435.953 69.7246 434.153 69.6246C433.553 68.8246 433.053 67.9246 432.453 67.1246C428.353 69.7246 423.553 72.4246 418.653 70.7246C411.453 69.6246 405.953 61.4246 409.153 54.5246C411.153 49.2246 416.953 46.8246 422.253 46.4246C425.953 46.1246 429.553 47.4246 433.253 47.6246C432.853 43.3246 429.653 39.1246 424.953 39.4246C420.853 38.7246 417.453 41.2246 414.753 44.0246C412.753 43.1246 411.153 41.8246 409.753 40.4246ZM415.453 59.3246C415.753 62.9246 419.653 64.9246 422.953 64.7246C428.153 64.3246 432.353 60.1246 432.653 54.9246C429.853 52.4246 425.653 52.2246 422.153 52.5246C418.653 52.8246 415.053 55.5246 415.453 59.3246ZM503.153 36.8246C506.353 34.9246 509.653 32.4246 513.753 32.8246C520.653 32.2246 526.853 38.3246 526.853 45.0246C526.953 53.2246 526.853 61.3246 526.853 69.5246C524.553 69.7246 522.253 69.8246 519.953 69.6246C519.653 61.5246 520.353 53.4246 519.553 45.3246C519.153 40.1246 512.753 38.5246 508.553 40.1246C504.853 41.7246 502.853 45.7246 502.753 49.6246C502.553 56.3246 502.853 62.9246 502.753 69.6246C500.353 69.8246 498.053 69.8246 495.653 69.6246C495.553 57.8246 495.553 45.9246 495.653 34.1246C497.853 33.9246 499.953 33.9246 502.153 34.2246C502.453 34.7246 502.953 36.1246 503.153 36.8246ZM539.353 36.0246C546.053 30.8246 556.753 31.7246 562.353 38.1246C565.853 42.3246 567.353 47.8246 566.653 53.3246C557.653 53.6246 548.553 53.3246 539.553 53.4246C538.753 60.0246 545.553 65.4246 551.853 64.3246C555.553 64.2246 557.753 61.0246 560.253 58.7246C562.453 58.5246 564.253 60.1246 566.053 60.9246C562.453 69.9246 550.553 73.6246 542.053 69.2246C529.553 63.5246 528.653 44.0246 539.353 36.0246ZM539.453 47.4246C545.953 47.7246 552.553 47.7246 559.153 47.4246C558.553 42.5246 554.153 39.0246 549.253 39.4246C544.353 39.1246 540.853 43.2246 539.453 47.4246ZM585.153 33.2246C587.653 32.4246 590.353 32.8246 592.953 33.2246C593.153 35.6246 593.253 38.0246 593.153 40.4246C590.553 40.3246 587.853 39.6246 585.253 40.2246C581.553 41.7246 579.053 45.3246 579.153 49.3246C578.953 56.0246 579.253 62.6246 579.153 69.3246C576.853 69.6246 574.453 69.6246 572.153 69.4246C572.053 57.6246 572.053 45.7246 572.153 33.9246C573.953 33.7246 575.853 33.7246 577.653 33.7246C578.253 34.6246 578.853 35.5246 579.553 36.4246C581.453 35.3246 583.353 34.2246 585.153 33.2246ZM452.353 37.5246C454.953 36.1246 457.253 33.8246 460.353 33.8246C461.953 33.7246 463.653 33.8246 465.253 33.9246C465.353 36.1246 465.353 38.3246 465.353 40.4246C462.253 40.9246 458.553 40.1246 456.053 42.4246C454.353 44.0246 452.753 46.1246 452.753 48.6246C452.453 55.8246 452.953 63.0246 452.553 70.3246C450.353 70.5246 448.053 70.5246 445.753 70.4246C445.553 58.5246 445.553 46.6246 445.753 34.8246C447.753 34.6246 449.653 34.7246 451.653 35.0246C451.753 35.5246 452.153 36.8246 452.353 37.5246Z" fill="#606469" stroke="#5F6368" stroke-width="0.25" stroke-miterlimit="10"/>
<path d="M136.655 23.9248C143.855 18.2248 154.255 17.8248 162.655 20.9248C165.655 22.3248 169.055 24.0248 170.555 27.3248C169.155 28.9248 167.655 30.4248 165.955 31.7248C163.555 29.7248 161.055 27.6248 158.055 26.6248C150.555 24.4248 141.655 26.7248 137.055 33.2248C133.155 37.7248 132.955 44.1248 133.855 49.8248C135.555 58.6248 144.555 65.1248 153.455 64.3248C161.455 64.4248 169.355 57.7248 169.355 49.4248C163.555 49.0248 157.755 49.4248 151.955 49.2248C151.155 47.4248 151.055 45.3248 151.555 43.4248C159.655 42.6248 167.955 43.1248 176.055 43.1248C176.955 50.4248 175.855 58.5248 170.255 63.8248C161.255 73.4248 144.955 73.5248 135.255 65.1248C124.155 55.7248 122.855 39.0248 132.355 27.9248C133.655 26.5248 135.055 25.1248 136.655 23.9248ZM304.155 20.4248C306.455 20.0248 308.855 19.9248 311.155 20.1248C311.455 36.5248 311.255 52.9248 311.255 69.3248C308.955 70.1248 306.555 69.7248 304.155 69.6248C304.055 53.2248 304.155 36.8248 304.155 20.4248ZM194.655 33.4248C199.755 32.3248 205.455 32.9248 209.755 36.0248C218.155 41.5248 220.455 53.9248 215.155 62.3248C212.055 68.2248 205.155 71.3248 198.655 71.3248C194.255 70.8248 189.755 69.3248 186.655 66.1248C181.355 61.1248 179.655 52.9248 181.755 46.1248C183.255 39.8248 188.655 35.1248 194.655 33.4248ZM195.555 40.2248C191.355 41.8248 188.555 45.7248 188.355 50.1248C187.955 54.4248 188.755 59.4248 192.455 62.1248C198.155 67.1248 208.355 63.9248 210.155 56.6248C211.055 52.0248 211.155 46.2248 207.255 42.8248C204.555 39.5248 199.555 38.9248 195.555 40.2248ZM234.855 33.5248C239.555 32.5248 244.755 32.6248 248.955 35.2248C258.855 40.3248 261.455 54.5248 255.155 63.3248C251.955 68.5248 245.755 71.3248 239.755 71.4248C234.055 71.0248 228.155 68.5248 224.955 63.6248C221.755 59.4248 221.255 53.9248 221.755 48.8248C222.455 41.6248 228.155 35.6248 234.855 33.5248ZM236.455 40.1248C227.055 43.0248 225.855 57.4248 233.655 62.7248C237.455 65.3248 243.355 65.3248 246.855 62.1248C252.555 57.6248 252.855 48.3248 248.155 43.0248C245.255 39.7248 240.455 38.9248 236.455 40.1248ZM262.755 46.0248C264.655 38.5248 271.755 32.1248 279.755 32.9248C283.655 32.6248 286.755 35.2248 289.955 37.0248C290.255 36.0248 290.555 35.0248 290.855 34.0248C292.955 33.9248 295.055 33.9248 297.055 34.0248C297.255 45.4248 297.055 56.9248 297.155 68.3248C297.255 73.9248 294.955 80.0248 290.055 83.1248C285.755 85.9248 280.355 85.9248 275.455 85.4248C269.955 84.6248 265.355 80.8248 263.655 75.5248C265.355 74.2248 267.255 72.6248 269.455 73.0248C271.355 75.0248 272.955 77.3248 275.455 78.6248C279.955 80.8248 285.855 78.9248 288.755 74.9248C290.355 72.5248 290.255 69.5248 290.255 66.8248C286.555 69.2248 282.355 71.8248 277.755 71.3248C273.155 70.6248 268.255 68.6248 265.655 64.5248C261.855 59.2248 261.155 52.2248 262.755 46.0248ZM275.655 40.3248C267.855 43.9248 266.855 55.5248 272.355 61.5248C275.655 64.8248 280.655 65.5248 284.755 63.3248C292.455 58.6248 292.555 45.7248 285.055 40.8248C282.155 39.3248 278.755 39.1248 275.655 40.3248ZM322.255 37.9248C325.555 34.4248 330.155 32.6248 334.955 32.9248C340.855 32.6248 346.355 36.4248 349.355 41.3248C351.355 44.9248 351.555 49.1248 351.455 53.2248C342.555 54.3248 333.455 53.2248 324.455 53.7248C323.655 60.5248 330.955 66.0248 337.355 64.4248C341.055 64.0248 343.055 60.8248 345.255 58.3248C347.155 59.1248 348.955 60.0248 350.755 60.8248C349.555 66.0248 344.255 69.5248 339.255 70.7248C333.955 72.3248 328.255 70.6248 323.855 67.6248C319.055 64.1248 317.255 57.9248 316.655 52.3248C317.055 47.2248 318.355 41.6248 322.255 37.9248ZM329.955 40.4248C326.855 41.5248 325.455 44.8248 324.555 47.7248C331.055 47.8248 337.555 47.8248 344.055 47.7248C343.355 45.6248 342.855 43.2248 341.055 41.7248C338.055 39.2248 333.555 39.1248 329.955 40.4248Z" fill="#606469" stroke="#5F6368" stroke-miterlimit="10"/>
</svg>
