<svg width="120" height="120" viewBox="0 0 120 120" fill="none" xmlns="http://www.w3.org/2000/svg">
<rect width="120" height="120" rx="60" fill="#09090B"/>
<path fill-rule="evenodd" clip-rule="evenodd" d="M50.1689 32.1972L31.393 77.3428L34.6915 82.0153L37.0021 84.9854L38.7277 87.1381L44.1632 86.6721L49.3321 74.6145L53.0971 74.4583L70.1924 73.3882L73.1095 72.3053L74.1229 71.7222L76.0691 70.379L77.3368 69.1842L78.6767 67.4453L79.1643 66.6435L85.2194 52.0844L85.5459 50.9286L85.5587 49.7858L85.1475 48.1797L84.7956 47.1723L83.4856 44.7619L81.9508 43.2625L81.0011 42.5805L78.3724 41.4873L78.6522 40.8144L78.8963 39.9449L78.8473 39.6039L78.7625 39.0664L78.239 37.9158L77.7154 36.7653L77.1155 35.7982L76.5156 34.8312L75.546 33.6779L74.698 33.0707L73.8914 32.4482L71.979 31.6529L70.4314 31.2963L50.1689 32.1972ZM44.3704 59.1599L53.3946 37.4617L69.3458 36.8721L70.1048 36.9007L71.682 37.5567L72.6004 38.4095L73.2464 39.3554L73.505 41.3285L68.5693 53.1961L67.3312 54.6903L65.5461 56.3875L63.2862 57.7437L60.2377 58.772L58.4357 59.0271L55.4297 59.212L60.2848 47.1674L69.515 46.8445L71.3893 41.5967L61.7823 42.0331L56.6673 42.6134L49.7551 59.2333L44.3704 59.1599ZM37.0914 76.9861L40.5213 81.7133L46.9539 65.876L52.0757 65.423L52.6437 65.3083L51.3081 69.122L52.031 69.3856L66.6014 68.307L67.7759 68.078L69.315 67.7135L71.2399 66.792L72.9232 65.3394L74.1401 64.267L74.9415 63.4522L75.4503 62.2287L78.6051 54.6433L80.7931 49.3824L80.844 49.2601L80.4921 48.2527L79.6441 47.326L76.9646 46.3551L76.9137 46.4774L73.1695 55.1093L72.1943 56.7128L70.7018 58.8187L69.0694 60.1489L66.1395 62.3746L63.2224 63.4575L60.4283 63.8741L56.2986 64.1657L51.2786 64.374L42.2307 64.6292L42.078 64.9962L37.0914 76.9861Z" fill="white" stroke="white"/>
</svg>
