<svg width="1950" height="960" viewBox="0 0 1950 960" fill="none" xmlns="http://www.w3.org/2000/svg">
<rect width="1872" height="960" fill="white"/>
<g filter="url(#filter0_d_3580_17943)">
<rect x="16" y="414" width="800" height="132" rx="6" fill="#FAFAFA" shape-rendering="crispEdges"/>
<rect x="16.5" y="414.5" width="799" height="131" rx="5.5" stroke="#E5E7EB" shape-rendering="crispEdges"/>
<path d="M42.0085 468V447.636H49.6449C51.2093 447.636 52.5218 447.928 53.5824 448.511C54.6496 449.095 55.455 449.897 55.9986 450.918C56.5488 451.932 56.8239 453.085 56.8239 454.378C56.8239 455.684 56.5488 456.844 55.9986 457.858C55.4484 458.872 54.6364 459.671 53.5625 460.254C52.4886 460.831 51.1662 461.119 49.5952 461.119H44.5341V458.087H49.098C50.0128 458.087 50.7618 457.928 51.3452 457.609C51.9285 457.291 52.3594 456.854 52.6378 456.297C52.9228 455.74 53.0653 455.1 53.0653 454.378C53.0653 453.655 52.9228 453.019 52.6378 452.469C52.3594 451.919 51.9252 451.491 51.3352 451.186C50.7519 450.875 49.9995 450.719 49.0781 450.719H45.6974V468H42.0085ZM69.6033 461.577V452.727H73.2028V468H69.7127V465.286H69.5536C69.2089 466.141 68.6422 466.84 67.8533 467.384C67.0711 467.927 66.1067 468.199 64.9599 468.199C63.9589 468.199 63.074 467.977 62.305 467.533C61.5427 467.082 60.9461 466.429 60.5153 465.574C60.0844 464.712 59.869 463.671 59.869 462.452V452.727H63.4684V461.895C63.4684 462.863 63.7335 463.632 64.2638 464.202C64.7942 464.772 65.4902 465.057 66.3519 465.057C66.8822 465.057 67.396 464.928 67.8931 464.669C68.3903 464.411 68.7979 464.026 69.1161 463.516C69.4409 462.999 69.6033 462.352 69.6033 461.577ZM77.0632 468V447.636H80.6626V455.253H80.8118C80.9974 454.882 81.2592 454.487 81.5973 454.07C81.9354 453.645 82.3928 453.284 82.9695 452.986C83.5462 452.681 84.282 452.528 85.1768 452.528C86.3568 452.528 87.4207 452.83 88.3686 453.433C89.3232 454.03 90.0788 454.915 90.6357 456.088C91.1991 457.255 91.4808 458.687 91.4808 460.384C91.4808 462.061 91.2057 463.486 90.6555 464.659C90.1054 465.832 89.3563 466.727 88.4084 467.344C87.4605 467.96 86.3866 468.268 85.1868 468.268C84.3118 468.268 83.5859 468.123 83.0092 467.831C82.4325 467.539 81.9685 467.188 81.6172 466.777C81.2725 466.359 81.004 465.965 80.8118 465.594H80.603V468H77.0632ZM80.593 460.364C80.593 461.351 80.7322 462.216 81.0107 462.959C81.2957 463.701 81.7034 464.281 82.2337 464.699C82.7706 465.11 83.4202 465.315 84.1825 465.315C84.978 465.315 85.6442 465.103 86.1811 464.679C86.718 464.248 87.1224 463.661 87.3942 462.919C87.6726 462.17 87.8118 461.318 87.8118 460.364C87.8118 459.416 87.6759 458.574 87.4041 457.838C87.1323 457.102 86.728 456.526 86.1911 456.108C85.6541 455.69 84.9846 455.482 84.1825 455.482C83.4136 455.482 82.7607 455.684 82.2237 456.088C81.6868 456.492 81.2791 457.059 81.0007 457.788C80.7289 458.518 80.593 459.376 80.593 460.364ZM98.1403 447.636V468H94.5408V447.636H98.1403ZM101.842 468V452.727H105.441V468H101.842ZM103.651 450.56C103.081 450.56 102.591 450.371 102.18 449.993C101.769 449.608 101.563 449.148 101.563 448.611C101.563 448.067 101.769 447.607 102.18 447.229C102.591 446.844 103.081 446.652 103.651 446.652C104.228 446.652 104.719 446.844 105.123 447.229C105.534 447.607 105.739 448.067 105.739 448.611C105.739 449.148 105.534 449.608 105.123 449.993C104.719 450.371 104.228 450.56 103.651 450.56ZM115.804 468.298C114.28 468.298 112.971 467.964 111.877 467.294C110.79 466.625 109.951 465.7 109.361 464.52C108.778 463.333 108.486 461.968 108.486 460.423C108.486 458.872 108.784 457.503 109.381 456.317C109.978 455.124 110.819 454.196 111.907 453.533C113 452.863 114.293 452.528 115.784 452.528C117.024 452.528 118.121 452.757 119.076 453.214C120.037 453.665 120.802 454.305 121.373 455.134C121.943 455.955 122.267 456.917 122.347 458.017H118.907C118.767 457.281 118.436 456.668 117.912 456.178C117.395 455.68 116.703 455.432 115.834 455.432C115.098 455.432 114.452 455.631 113.895 456.028C113.338 456.42 112.904 456.983 112.593 457.719C112.288 458.455 112.135 459.336 112.135 460.364C112.135 461.404 112.288 462.299 112.593 463.048C112.898 463.791 113.325 464.364 113.875 464.768C114.432 465.166 115.085 465.365 115.834 465.365C116.364 465.365 116.838 465.266 117.256 465.067C117.68 464.861 118.035 464.566 118.32 464.182C118.605 463.797 118.801 463.33 118.907 462.78H122.347C122.261 463.86 121.943 464.818 121.392 465.653C120.842 466.482 120.093 467.132 119.145 467.602C118.197 468.066 117.084 468.298 115.804 468.298ZM135.022 468H131.085L138.254 447.636H142.808L149.987 468H146.049L140.61 451.812H140.451L135.022 468ZM135.151 460.016H145.89V462.979H135.151V460.016ZM152.669 468V447.636H160.305C161.869 447.636 163.182 447.928 164.243 448.511C165.31 449.095 166.115 449.897 166.659 450.918C167.209 451.932 167.484 453.085 167.484 454.378C167.484 455.684 167.209 456.844 166.659 457.858C166.109 458.872 165.297 459.671 164.223 460.254C163.149 460.831 161.826 461.119 160.255 461.119H155.194V458.087H159.758C160.673 458.087 161.422 457.928 162.005 457.609C162.589 457.291 163.02 456.854 163.298 456.297C163.583 455.74 163.725 455.1 163.725 454.378C163.725 453.655 163.583 453.019 163.298 452.469C163.02 451.919 162.585 451.491 161.995 451.186C161.412 450.875 160.66 450.719 159.738 450.719H156.358V468H152.669ZM174.377 447.636V468H170.688V447.636H174.377Z" fill="#27272A"/>
<path d="M48.75 512H42.4659V491.636H49.0284C51.0038 491.636 52.6941 492.044 54.0994 492.859C55.5047 493.668 56.5819 494.831 57.331 496.349C58.08 497.861 58.4545 499.67 58.4545 501.778C58.4545 503.9 58.0767 505.726 57.321 507.257C56.5653 508.782 55.465 509.955 54.0199 510.777C52.5748 511.592 50.8182 512 48.75 512ZM44.9318 509.812H48.5909C50.2746 509.812 51.67 509.488 52.777 508.838C53.884 508.188 54.7093 507.264 55.2528 506.064C55.7964 504.864 56.0682 503.436 56.0682 501.778C56.0682 500.134 55.7997 498.719 55.2628 497.533C54.7259 496.339 53.9238 495.425 52.8565 494.788C51.7893 494.145 50.4602 493.824 48.8693 493.824H44.9318V509.812ZM68.6761 512.318C67.2045 512.318 65.9351 511.993 64.8679 511.344C63.8073 510.688 62.9886 509.773 62.4119 508.599C61.8419 507.42 61.5568 506.047 61.5568 504.483C61.5568 502.919 61.8419 501.54 62.4119 500.347C62.9886 499.147 63.7907 498.212 64.8182 497.543C65.8523 496.866 67.0587 496.528 68.4375 496.528C69.233 496.528 70.0185 496.661 70.794 496.926C71.5696 497.191 72.2756 497.622 72.9119 498.219C73.5483 498.809 74.0554 499.591 74.4332 500.565C74.8111 501.54 75 502.74 75 504.165V505.159H63.2273V503.131H72.6136C72.6136 502.269 72.4413 501.5 72.0966 500.824C71.7585 500.148 71.2746 499.614 70.6449 499.223C70.0218 498.832 69.286 498.636 68.4375 498.636C67.5028 498.636 66.6941 498.868 66.0114 499.332C65.3352 499.79 64.8149 500.386 64.4503 501.122C64.0857 501.858 63.9034 502.647 63.9034 503.489V504.841C63.9034 505.994 64.1023 506.972 64.5 507.774C64.9044 508.57 65.4645 509.176 66.1804 509.594C66.8963 510.005 67.7282 510.21 68.6761 510.21C69.2926 510.21 69.8494 510.124 70.3466 509.952C70.8504 509.773 71.2846 509.508 71.6491 509.156C72.0137 508.798 72.2955 508.354 72.4943 507.824L74.7614 508.46C74.5227 509.229 74.1217 509.905 73.5582 510.489C72.9948 511.065 72.2988 511.516 71.4702 511.841C70.6416 512.159 69.7102 512.318 68.6761 512.318ZM85.3707 496.727V498.716H77.1378V496.727H85.3707ZM79.6037 512V494.619C79.6037 493.744 79.8092 493.015 80.2202 492.432C80.6312 491.848 81.1648 491.411 81.821 491.119C82.4773 490.828 83.17 490.682 83.8991 490.682C84.4759 490.682 84.9465 490.728 85.3111 490.821C85.6757 490.914 85.9474 491 86.1264 491.08L85.4503 493.108C85.331 493.068 85.1652 493.018 84.9531 492.959C84.7476 492.899 84.4759 492.869 84.1378 492.869C83.3622 492.869 82.8021 493.065 82.4574 493.456C82.1193 493.847 81.9503 494.42 81.9503 495.176V512H79.6037ZM88.6594 512V496.727H91.006V512H88.6594ZM89.8526 494.182C89.3952 494.182 89.0008 494.026 88.6694 493.714C88.3446 493.403 88.1822 493.028 88.1822 492.591C88.1822 492.153 88.3446 491.779 88.6694 491.467C89.0008 491.156 89.3952 491 89.8526 491C90.31 491 90.7011 491.156 91.0259 491.467C91.3574 491.779 91.5231 492.153 91.5231 492.591C91.5231 493.028 91.3574 493.403 91.0259 493.714C90.7011 494.026 90.31 494.182 89.8526 494.182ZM97.6506 502.812V512H95.304V496.727H97.571V499.114H97.7699C98.1278 498.338 98.6714 497.715 99.4006 497.244C100.13 496.767 101.071 496.528 102.224 496.528C103.259 496.528 104.163 496.741 104.939 497.165C105.714 497.582 106.318 498.219 106.749 499.074C107.179 499.922 107.395 500.996 107.395 502.295V512H105.048V502.455C105.048 501.255 104.737 500.32 104.114 499.651C103.491 498.974 102.635 498.636 101.548 498.636C100.799 498.636 100.13 498.799 99.5398 499.124C98.9564 499.448 98.4957 499.922 98.1577 500.545C97.8196 501.169 97.6506 501.924 97.6506 502.812ZM118.086 512.318C116.615 512.318 115.345 511.993 114.278 511.344C113.217 510.688 112.399 509.773 111.822 508.599C111.252 507.42 110.967 506.047 110.967 504.483C110.967 502.919 111.252 501.54 111.822 500.347C112.399 499.147 113.201 498.212 114.228 497.543C115.262 496.866 116.469 496.528 117.848 496.528C118.643 496.528 119.429 496.661 120.204 496.926C120.98 497.191 121.686 497.622 122.322 498.219C122.958 498.809 123.466 499.591 123.843 500.565C124.221 501.54 124.41 502.74 124.41 504.165V505.159H112.637V503.131H122.024C122.024 502.269 121.851 501.5 121.507 500.824C121.169 500.148 120.685 499.614 120.055 499.223C119.432 498.832 118.696 498.636 117.848 498.636C116.913 498.636 116.104 498.868 115.422 499.332C114.745 499.79 114.225 500.386 113.86 501.122C113.496 501.858 113.314 502.647 113.314 503.489V504.841C113.314 505.994 113.512 506.972 113.91 507.774C114.315 508.57 114.875 509.176 115.591 509.594C116.306 510.005 117.138 510.21 118.086 510.21C118.703 510.21 119.26 510.124 119.757 509.952C120.261 509.773 120.695 509.508 121.059 509.156C121.424 508.798 121.706 508.354 121.904 507.824L124.172 508.46C123.933 509.229 123.532 509.905 122.968 510.489C122.405 511.065 121.709 511.516 120.88 511.841C120.052 512.159 119.12 512.318 118.086 512.318ZM152.559 498H150.093C149.948 497.291 149.692 496.668 149.328 496.131C148.97 495.594 148.532 495.143 148.015 494.778C147.505 494.407 146.938 494.129 146.315 493.943C145.692 493.758 145.042 493.665 144.366 493.665C143.133 493.665 142.016 493.976 141.015 494.599C140.021 495.223 139.229 496.141 138.639 497.354C138.056 498.567 137.764 500.055 137.764 501.818C137.764 503.581 138.056 505.07 138.639 506.283C139.229 507.496 140.021 508.414 141.015 509.037C142.016 509.66 143.133 509.972 144.366 509.972C145.042 509.972 145.692 509.879 146.315 509.693C146.938 509.508 147.505 509.232 148.015 508.868C148.532 508.497 148.97 508.043 149.328 507.506C149.692 506.962 149.948 506.339 150.093 505.636H152.559C152.374 506.677 152.036 507.608 151.545 508.43C151.055 509.252 150.445 509.952 149.716 510.528C148.986 511.098 148.168 511.533 147.26 511.831C146.358 512.129 145.394 512.278 144.366 512.278C142.629 512.278 141.085 511.854 139.733 511.006C138.38 510.157 137.316 508.951 136.541 507.386C135.765 505.822 135.377 503.966 135.377 501.818C135.377 499.67 135.765 497.814 136.541 496.25C137.316 494.686 138.38 493.479 139.733 492.631C141.085 491.782 142.629 491.358 144.366 491.358C145.394 491.358 146.358 491.507 147.26 491.805C148.168 492.104 148.986 492.541 149.716 493.118C150.445 493.688 151.055 494.384 151.545 495.206C152.036 496.021 152.374 496.953 152.559 498ZM162.43 512.318C161.052 512.318 159.842 511.99 158.801 511.334C157.767 510.678 156.958 509.759 156.375 508.58C155.798 507.4 155.51 506.021 155.51 504.443C155.51 502.852 155.798 501.464 156.375 500.277C156.958 499.09 157.767 498.169 158.801 497.513C159.842 496.857 161.052 496.528 162.43 496.528C163.809 496.528 165.016 496.857 166.05 497.513C167.09 498.169 167.899 499.09 168.476 500.277C169.059 501.464 169.351 502.852 169.351 504.443C169.351 506.021 169.059 507.4 168.476 508.58C167.899 509.759 167.09 510.678 166.05 511.334C165.016 511.99 163.809 512.318 162.43 512.318ZM162.43 510.21C163.478 510.21 164.339 509.942 165.016 509.405C165.692 508.868 166.192 508.162 166.517 507.287C166.842 506.412 167.004 505.464 167.004 504.443C167.004 503.422 166.842 502.471 166.517 501.589C166.192 500.708 165.692 499.995 165.016 499.452C164.339 498.908 163.478 498.636 162.43 498.636C161.383 498.636 160.521 498.908 159.845 499.452C159.169 499.995 158.669 500.708 158.344 501.589C158.019 502.471 157.857 503.422 157.857 504.443C157.857 505.464 158.019 506.412 158.344 507.287C158.669 508.162 159.169 508.868 159.845 509.405C160.521 509.942 161.383 510.21 162.43 510.21ZM172.933 512V496.727H175.2V499.034H175.359C175.637 498.278 176.141 497.665 176.87 497.195C177.6 496.724 178.422 496.489 179.336 496.489C179.509 496.489 179.724 496.492 179.983 496.499C180.241 496.505 180.437 496.515 180.569 496.528V498.915C180.49 498.895 180.307 498.865 180.022 498.825C179.744 498.779 179.449 498.756 179.137 498.756C178.395 498.756 177.732 498.911 177.149 499.223C176.572 499.528 176.115 499.952 175.777 500.496C175.445 501.033 175.279 501.646 175.279 502.335V512H172.933ZM189.289 512.318C187.818 512.318 186.548 511.993 185.481 511.344C184.421 510.688 183.602 509.773 183.025 508.599C182.455 507.42 182.17 506.047 182.17 504.483C182.17 502.919 182.455 501.54 183.025 500.347C183.602 499.147 184.404 498.212 185.431 497.543C186.466 496.866 187.672 496.528 189.051 496.528C189.846 496.528 190.632 496.661 191.407 496.926C192.183 497.191 192.889 497.622 193.525 498.219C194.162 498.809 194.669 499.591 195.047 500.565C195.424 501.54 195.613 502.74 195.613 504.165V505.159H183.841V503.131H193.227C193.227 502.269 193.055 501.5 192.71 500.824C192.372 500.148 191.888 499.614 191.258 499.223C190.635 498.832 189.899 498.636 189.051 498.636C188.116 498.636 187.307 498.868 186.625 499.332C185.949 499.79 185.428 500.386 185.064 501.122C184.699 501.858 184.517 502.647 184.517 503.489V504.841C184.517 505.994 184.716 506.972 185.113 507.774C185.518 508.57 186.078 509.176 186.794 509.594C187.51 510.005 188.342 510.21 189.289 510.21C189.906 510.21 190.463 510.124 190.96 509.952C191.464 509.773 191.898 509.508 192.262 509.156C192.627 508.798 192.909 508.354 193.108 507.824L195.375 508.46C195.136 509.229 194.735 509.905 194.172 510.489C193.608 511.065 192.912 511.516 192.083 511.841C191.255 512.159 190.324 512.318 189.289 512.318ZM207.376 512V491.636H219.666V493.824H209.842V500.705H219.029V502.892H209.842V509.812H219.825V512H207.376ZM226.139 502.812V512H223.792V496.727H226.059V499.114H226.258C226.616 498.338 227.16 497.715 227.889 497.244C228.618 496.767 229.559 496.528 230.713 496.528C231.747 496.528 232.652 496.741 233.427 497.165C234.203 497.582 234.806 498.219 235.237 499.074C235.668 499.922 235.883 500.996 235.883 502.295V512H233.537V502.455C233.537 501.255 233.225 500.32 232.602 499.651C231.979 498.974 231.124 498.636 230.037 498.636C229.288 498.636 228.618 498.799 228.028 499.124C227.445 499.448 226.984 499.922 226.646 500.545C226.308 501.169 226.139 501.924 226.139 502.812ZM245.938 512.318C244.665 512.318 243.542 511.997 242.567 511.354C241.593 510.704 240.831 509.789 240.281 508.609C239.73 507.423 239.455 506.021 239.455 504.403C239.455 502.799 239.73 501.407 240.281 500.227C240.831 499.047 241.596 498.136 242.577 497.493C243.558 496.85 244.692 496.528 245.978 496.528C246.972 496.528 247.758 496.694 248.335 497.026C248.918 497.35 249.362 497.722 249.667 498.139C249.978 498.55 250.22 498.888 250.393 499.153H250.592V491.636H252.938V512H250.671V509.653H250.393C250.22 509.932 249.975 510.283 249.657 510.707C249.339 511.125 248.885 511.5 248.295 511.831C247.705 512.156 246.919 512.318 245.938 512.318ZM246.256 510.21C247.198 510.21 247.993 509.965 248.643 509.474C249.292 508.977 249.786 508.291 250.124 507.416C250.462 506.535 250.631 505.517 250.631 504.364C250.631 503.223 250.466 502.226 250.134 501.371C249.803 500.509 249.312 499.839 248.663 499.362C248.013 498.878 247.211 498.636 246.256 498.636C245.262 498.636 244.433 498.892 243.771 499.402C243.114 499.906 242.621 500.592 242.289 501.46C241.964 502.322 241.802 503.29 241.802 504.364C241.802 505.451 241.968 506.438 242.299 507.327C242.637 508.208 243.134 508.911 243.79 509.435C244.453 509.952 245.275 510.21 246.256 510.21ZM257.562 517.727V496.727H259.829V499.153H260.107C260.28 498.888 260.518 498.55 260.823 498.139C261.135 497.722 261.579 497.35 262.156 497.026C262.739 496.694 263.528 496.528 264.522 496.528C265.808 496.528 266.942 496.85 267.923 497.493C268.904 498.136 269.669 499.047 270.219 500.227C270.77 501.407 271.045 502.799 271.045 504.403C271.045 506.021 270.77 507.423 270.219 508.609C269.669 509.789 268.907 510.704 267.933 511.354C266.958 511.997 265.835 512.318 264.562 512.318C263.581 512.318 262.795 512.156 262.205 511.831C261.615 511.5 261.161 511.125 260.843 510.707C260.525 510.283 260.28 509.932 260.107 509.653H259.908V517.727H257.562ZM259.869 504.364C259.869 505.517 260.038 506.535 260.376 507.416C260.714 508.291 261.208 508.977 261.857 509.474C262.507 509.965 263.302 510.21 264.244 510.21C265.225 510.21 266.043 509.952 266.7 509.435C267.362 508.911 267.86 508.208 268.191 507.327C268.529 506.438 268.698 505.451 268.698 504.364C268.698 503.29 268.532 502.322 268.201 501.46C267.876 500.592 267.382 499.906 266.719 499.402C266.063 498.892 265.238 498.636 264.244 498.636C263.289 498.636 262.487 498.878 261.837 499.362C261.188 499.839 260.697 500.509 260.366 501.371C260.034 502.226 259.869 503.223 259.869 504.364ZM280.829 512.318C279.45 512.318 278.24 511.99 277.2 511.334C276.165 510.678 275.357 509.759 274.773 508.58C274.197 507.4 273.908 506.021 273.908 504.443C273.908 502.852 274.197 501.464 274.773 500.277C275.357 499.09 276.165 498.169 277.2 497.513C278.24 496.857 279.45 496.528 280.829 496.528C282.208 496.528 283.414 496.857 284.448 497.513C285.489 498.169 286.298 499.09 286.874 500.277C287.458 501.464 287.749 502.852 287.749 504.443C287.749 506.021 287.458 507.4 286.874 508.58C286.298 509.759 285.489 510.678 284.448 511.334C283.414 511.99 282.208 512.318 280.829 512.318ZM280.829 510.21C281.876 510.21 282.738 509.942 283.414 509.405C284.09 508.868 284.591 508.162 284.915 507.287C285.24 506.412 285.403 505.464 285.403 504.443C285.403 503.422 285.24 502.471 284.915 501.589C284.591 500.708 284.09 499.995 283.414 499.452C282.738 498.908 281.876 498.636 280.829 498.636C279.781 498.636 278.92 498.908 278.244 499.452C277.567 499.995 277.067 500.708 276.742 501.589C276.417 502.471 276.255 503.422 276.255 504.443C276.255 505.464 276.417 506.412 276.742 507.287C277.067 508.162 277.567 508.868 278.244 509.405C278.92 509.942 279.781 510.21 280.829 510.21ZM291.331 512V496.727H293.678V512H291.331ZM292.525 494.182C292.067 494.182 291.673 494.026 291.341 493.714C291.016 493.403 290.854 493.028 290.854 492.591C290.854 492.153 291.016 491.779 291.341 491.467C291.673 491.156 292.067 491 292.525 491C292.982 491 293.373 491.156 293.698 491.467C294.029 491.779 294.195 492.153 294.195 492.591C294.195 493.028 294.029 493.403 293.698 493.714C293.373 494.026 292.982 494.182 292.525 494.182ZM300.322 502.812V512H297.976V496.727H300.243V499.114H300.442C300.8 498.338 301.343 497.715 302.072 497.244C302.802 496.767 303.743 496.528 304.896 496.528C305.93 496.528 306.835 496.741 307.611 497.165C308.386 497.582 308.99 498.219 309.42 499.074C309.851 499.922 310.067 500.996 310.067 502.295V512H307.72V502.455C307.72 501.255 307.409 500.32 306.786 499.651C306.162 498.974 305.307 498.636 304.22 498.636C303.471 498.636 302.802 498.799 302.212 499.124C301.628 499.448 301.168 499.922 300.83 500.545C300.491 501.169 300.322 501.924 300.322 502.812ZM320.997 496.727V498.716H313.082V496.727H320.997ZM315.389 493.068H317.735V507.625C317.735 508.288 317.832 508.785 318.024 509.116C318.223 509.441 318.475 509.66 318.779 509.773C319.091 509.879 319.419 509.932 319.764 509.932C320.022 509.932 320.234 509.919 320.4 509.892C320.566 509.859 320.699 509.832 320.798 509.812L321.275 511.92C321.116 511.98 320.894 512.04 320.609 512.099C320.324 512.166 319.963 512.199 319.525 512.199C318.862 512.199 318.213 512.056 317.576 511.771C316.947 511.486 316.423 511.052 316.005 510.469C315.594 509.885 315.389 509.15 315.389 508.261V493.068ZM335.071 500.148L332.963 500.744C332.831 500.393 332.635 500.052 332.377 499.72C332.125 499.382 331.78 499.104 331.343 498.885C330.905 498.666 330.345 498.557 329.662 498.557C328.728 498.557 327.949 498.772 327.326 499.203C326.709 499.627 326.401 500.168 326.401 500.824C326.401 501.407 326.613 501.868 327.037 502.206C327.462 502.544 328.124 502.826 329.026 503.051L331.293 503.608C332.658 503.939 333.676 504.446 334.346 505.129C335.015 505.805 335.35 506.677 335.35 507.744C335.35 508.619 335.098 509.402 334.594 510.091C334.097 510.78 333.401 511.324 332.506 511.722C331.611 512.119 330.57 512.318 329.384 512.318C327.826 512.318 326.537 511.98 325.516 511.304C324.495 510.628 323.849 509.64 323.577 508.341L325.804 507.784C326.016 508.606 326.417 509.223 327.007 509.634C327.604 510.045 328.383 510.25 329.344 510.25C330.438 510.25 331.306 510.018 331.949 509.554C332.599 509.083 332.924 508.52 332.924 507.864C332.924 507.333 332.738 506.889 332.367 506.531C331.996 506.167 331.426 505.895 330.657 505.716L328.111 505.119C326.712 504.788 325.685 504.274 325.029 503.578C324.379 502.875 324.054 501.997 324.054 500.943C324.054 500.081 324.296 499.319 324.78 498.656C325.271 497.993 325.937 497.473 326.779 497.095C327.627 496.717 328.588 496.528 329.662 496.528C331.174 496.528 332.36 496.86 333.222 497.523C334.09 498.186 334.707 499.061 335.071 500.148Z" fill="#27272A"/>
</g>
<g filter="url(#filter1_d_3580_17943)">
<rect x="1004" y="232" width="800" height="132" rx="6" fill="#FAFAFA" shape-rendering="crispEdges"/>
<rect x="1004.5" y="232.5" width="799" height="131" rx="5.5" stroke="#E5E7EB" shape-rendering="crispEdges"/>
<path d="M1030.01 286V265.636H1037.64C1039.21 265.636 1040.52 265.928 1041.58 266.511C1042.65 267.095 1043.46 267.897 1044 268.918C1044.55 269.932 1044.82 271.085 1044.82 272.378C1044.82 273.684 1044.55 274.844 1044 275.858C1043.45 276.872 1042.64 277.671 1041.56 278.254C1040.49 278.831 1039.17 279.119 1037.6 279.119H1032.53V276.087H1037.1C1038.01 276.087 1038.76 275.928 1039.35 275.609C1039.93 275.291 1040.36 274.854 1040.64 274.297C1040.92 273.74 1041.07 273.1 1041.07 272.378C1041.07 271.655 1040.92 271.019 1040.64 270.469C1040.36 269.919 1039.93 269.491 1039.34 269.186C1038.75 268.875 1038 268.719 1037.08 268.719H1033.7V286H1030.01ZM1057.6 279.577V270.727H1061.2V286H1057.71V283.286H1057.55C1057.21 284.141 1056.64 284.84 1055.85 285.384C1055.07 285.927 1054.11 286.199 1052.96 286.199C1051.96 286.199 1051.07 285.977 1050.31 285.533C1049.54 285.082 1048.95 284.429 1048.52 283.574C1048.08 282.712 1047.87 281.671 1047.87 280.452V270.727H1051.47V279.895C1051.47 280.863 1051.73 281.632 1052.26 282.202C1052.79 282.772 1053.49 283.057 1054.35 283.057C1054.88 283.057 1055.4 282.928 1055.89 282.669C1056.39 282.411 1056.8 282.026 1057.12 281.516C1057.44 280.999 1057.6 280.352 1057.6 279.577ZM1065.06 286V265.636H1068.66V273.253H1068.81C1069 272.882 1069.26 272.487 1069.6 272.07C1069.94 271.645 1070.39 271.284 1070.97 270.986C1071.55 270.681 1072.28 270.528 1073.18 270.528C1074.36 270.528 1075.42 270.83 1076.37 271.433C1077.32 272.03 1078.08 272.915 1078.64 274.088C1079.2 275.255 1079.48 276.687 1079.48 278.384C1079.48 280.061 1079.21 281.486 1078.66 282.659C1078.11 283.832 1077.36 284.727 1076.41 285.344C1075.46 285.96 1074.39 286.268 1073.19 286.268C1072.31 286.268 1071.59 286.123 1071.01 285.831C1070.43 285.539 1069.97 285.188 1069.62 284.777C1069.27 284.359 1069 283.965 1068.81 283.594H1068.6V286H1065.06ZM1068.59 278.364C1068.59 279.351 1068.73 280.216 1069.01 280.959C1069.3 281.701 1069.7 282.281 1070.23 282.699C1070.77 283.11 1071.42 283.315 1072.18 283.315C1072.98 283.315 1073.64 283.103 1074.18 282.679C1074.72 282.248 1075.12 281.661 1075.39 280.919C1075.67 280.17 1075.81 279.318 1075.81 278.364C1075.81 277.416 1075.68 276.574 1075.4 275.838C1075.13 275.102 1074.73 274.526 1074.19 274.108C1073.65 273.69 1072.98 273.482 1072.18 273.482C1071.41 273.482 1070.76 273.684 1070.22 274.088C1069.69 274.492 1069.28 275.059 1069 275.788C1068.73 276.518 1068.59 277.376 1068.59 278.364ZM1086.14 265.636V286H1082.54V265.636H1086.14ZM1089.84 286V270.727H1093.44V286H1089.84ZM1091.65 268.56C1091.08 268.56 1090.59 268.371 1090.18 267.993C1089.77 267.608 1089.56 267.148 1089.56 266.611C1089.56 266.067 1089.77 265.607 1090.18 265.229C1090.59 264.844 1091.08 264.652 1091.65 264.652C1092.23 264.652 1092.72 264.844 1093.12 265.229C1093.53 265.607 1093.74 266.067 1093.74 266.611C1093.74 267.148 1093.53 267.608 1093.12 267.993C1092.72 268.371 1092.23 268.56 1091.65 268.56ZM1103.8 286.298C1102.28 286.298 1100.97 285.964 1099.88 285.294C1098.79 284.625 1097.95 283.7 1097.36 282.52C1096.78 281.333 1096.49 279.968 1096.49 278.423C1096.49 276.872 1096.78 275.503 1097.38 274.317C1097.98 273.124 1098.82 272.196 1099.91 271.533C1101 270.863 1102.29 270.528 1103.78 270.528C1105.02 270.528 1106.12 270.757 1107.08 271.214C1108.04 271.665 1108.8 272.305 1109.37 273.134C1109.94 273.955 1110.27 274.917 1110.35 276.017H1106.91C1106.77 275.281 1106.44 274.668 1105.91 274.178C1105.4 273.68 1104.7 273.432 1103.83 273.432C1103.1 273.432 1102.45 273.631 1101.9 274.028C1101.34 274.42 1100.9 274.983 1100.59 275.719C1100.29 276.455 1100.14 277.336 1100.14 278.364C1100.14 279.404 1100.29 280.299 1100.59 281.048C1100.9 281.791 1101.33 282.364 1101.88 282.768C1102.43 283.166 1103.09 283.365 1103.83 283.365C1104.36 283.365 1104.84 283.266 1105.26 283.067C1105.68 282.861 1106.03 282.566 1106.32 282.182C1106.6 281.797 1106.8 281.33 1106.91 280.78H1110.35C1110.26 281.86 1109.94 282.818 1109.39 283.653C1108.84 284.482 1108.09 285.132 1107.15 285.602C1106.2 286.066 1105.08 286.298 1103.8 286.298ZM1123.02 286H1119.08L1126.25 265.636H1130.81L1137.99 286H1134.05L1128.61 269.812H1128.45L1123.02 286ZM1123.15 278.016H1133.89V280.979H1123.15V278.016ZM1140.67 286V265.636H1148.31C1149.87 265.636 1151.18 265.928 1152.24 266.511C1153.31 267.095 1154.12 267.897 1154.66 268.918C1155.21 269.932 1155.48 271.085 1155.48 272.378C1155.48 273.684 1155.21 274.844 1154.66 275.858C1154.11 276.872 1153.3 277.671 1152.22 278.254C1151.15 278.831 1149.83 279.119 1148.26 279.119H1143.19V276.087H1147.76C1148.67 276.087 1149.42 275.928 1150.01 275.609C1150.59 275.291 1151.02 274.854 1151.3 274.297C1151.58 273.74 1151.73 273.1 1151.73 272.378C1151.73 271.655 1151.58 271.019 1151.3 270.469C1151.02 269.919 1150.59 269.491 1150 269.186C1149.41 268.875 1148.66 268.719 1147.74 268.719H1144.36V286H1140.67ZM1162.38 265.636V286H1158.69V265.636H1162.38Z" fill="#27272A"/>
<path d="M1036.75 330H1030.47V309.636H1037.03C1039 309.636 1040.69 310.044 1042.1 310.859C1043.5 311.668 1044.58 312.831 1045.33 314.349C1046.08 315.861 1046.45 317.67 1046.45 319.778C1046.45 321.9 1046.08 323.726 1045.32 325.257C1044.57 326.782 1043.46 327.955 1042.02 328.777C1040.57 329.592 1038.82 330 1036.75 330ZM1032.93 327.812H1036.59C1038.27 327.812 1039.67 327.488 1040.78 326.838C1041.88 326.188 1042.71 325.264 1043.25 324.064C1043.8 322.864 1044.07 321.436 1044.07 319.778C1044.07 318.134 1043.8 316.719 1043.26 315.533C1042.73 314.339 1041.92 313.425 1040.86 312.788C1039.79 312.145 1038.46 311.824 1036.87 311.824H1032.93V327.812ZM1056.68 330.318C1055.2 330.318 1053.94 329.993 1052.87 329.344C1051.81 328.688 1050.99 327.773 1050.41 326.599C1049.84 325.42 1049.56 324.047 1049.56 322.483C1049.56 320.919 1049.84 319.54 1050.41 318.347C1050.99 317.147 1051.79 316.212 1052.82 315.543C1053.85 314.866 1055.06 314.528 1056.44 314.528C1057.23 314.528 1058.02 314.661 1058.79 314.926C1059.57 315.191 1060.28 315.622 1060.91 316.219C1061.55 316.809 1062.06 317.591 1062.43 318.565C1062.81 319.54 1063 320.74 1063 322.165V323.159H1051.23V321.131H1060.61C1060.61 320.269 1060.44 319.5 1060.1 318.824C1059.76 318.148 1059.27 317.614 1058.64 317.223C1058.02 316.832 1057.29 316.636 1056.44 316.636C1055.5 316.636 1054.69 316.868 1054.01 317.332C1053.34 317.79 1052.81 318.386 1052.45 319.122C1052.09 319.858 1051.9 320.647 1051.9 321.489V322.841C1051.9 323.994 1052.1 324.972 1052.5 325.774C1052.9 326.57 1053.46 327.176 1054.18 327.594C1054.9 328.005 1055.73 328.21 1056.68 328.21C1057.29 328.21 1057.85 328.124 1058.35 327.952C1058.85 327.773 1059.28 327.508 1059.65 327.156C1060.01 326.798 1060.3 326.354 1060.49 325.824L1062.76 326.46C1062.52 327.229 1062.12 327.905 1061.56 328.489C1060.99 329.065 1060.3 329.516 1059.47 329.841C1058.64 330.159 1057.71 330.318 1056.68 330.318ZM1077.39 318.148L1075.28 318.744C1075.15 318.393 1074.95 318.052 1074.69 317.72C1074.44 317.382 1074.1 317.104 1073.66 316.885C1073.22 316.666 1072.66 316.557 1071.98 316.557C1071.04 316.557 1070.27 316.772 1069.64 317.203C1069.03 317.627 1068.72 318.168 1068.72 318.824C1068.72 319.407 1068.93 319.868 1069.35 320.206C1069.78 320.544 1070.44 320.826 1071.34 321.051L1073.61 321.608C1074.97 321.939 1075.99 322.446 1076.66 323.129C1077.33 323.805 1077.67 324.677 1077.67 325.744C1077.67 326.619 1077.41 327.402 1076.91 328.091C1076.41 328.78 1075.72 329.324 1074.82 329.722C1073.93 330.119 1072.89 330.318 1071.7 330.318C1070.14 330.318 1068.85 329.98 1067.83 329.304C1066.81 328.628 1066.17 327.64 1065.89 326.341L1068.12 325.784C1068.33 326.606 1068.73 327.223 1069.32 327.634C1069.92 328.045 1070.7 328.25 1071.66 328.25C1072.75 328.25 1073.62 328.018 1074.27 327.554C1074.92 327.083 1075.24 326.52 1075.24 325.864C1075.24 325.333 1075.05 324.889 1074.68 324.531C1074.31 324.167 1073.74 323.895 1072.97 323.716L1070.43 323.119C1069.03 322.788 1068 322.274 1067.35 321.578C1066.7 320.875 1066.37 319.997 1066.37 318.943C1066.37 318.081 1066.61 317.319 1067.1 316.656C1067.59 315.993 1068.25 315.473 1069.1 315.095C1069.94 314.717 1070.9 314.528 1071.98 314.528C1073.49 314.528 1074.68 314.86 1075.54 315.523C1076.41 316.186 1077.02 317.061 1077.39 318.148ZM1081.2 330V314.727H1083.55V330H1081.2ZM1082.39 312.182C1081.93 312.182 1081.54 312.026 1081.21 311.714C1080.88 311.403 1080.72 311.028 1080.72 310.591C1080.72 310.153 1080.88 309.779 1081.21 309.467C1081.54 309.156 1081.93 309 1082.39 309C1082.85 309 1083.24 309.156 1083.56 309.467C1083.9 309.779 1084.06 310.153 1084.06 310.591C1084.06 311.028 1083.9 311.403 1083.56 311.714C1083.24 312.026 1082.85 312.182 1082.39 312.182ZM1094.01 336.045C1092.87 336.045 1091.9 335.9 1091.08 335.608C1090.27 335.323 1089.59 334.945 1089.05 334.474C1088.51 334.01 1088.08 333.513 1087.76 332.983L1089.63 331.67C1089.84 331.949 1090.11 332.267 1090.44 332.625C1090.76 332.99 1091.21 333.304 1091.77 333.57C1092.34 333.841 1093.09 333.977 1094.01 333.977C1095.24 333.977 1096.26 333.679 1097.06 333.082C1097.86 332.486 1098.26 331.551 1098.26 330.278V327.176H1098.06C1097.89 327.455 1097.65 327.799 1097.33 328.21C1097.02 328.615 1096.57 328.976 1095.98 329.294C1095.39 329.606 1094.6 329.761 1093.61 329.761C1092.38 329.761 1091.27 329.47 1090.29 328.886C1089.31 328.303 1088.54 327.455 1087.97 326.341C1087.41 325.227 1087.13 323.875 1087.13 322.284C1087.13 320.72 1087.4 319.357 1087.95 318.197C1088.5 317.031 1089.27 316.129 1090.25 315.493C1091.23 314.85 1092.36 314.528 1093.65 314.528C1094.64 314.528 1095.43 314.694 1096.02 315.026C1096.61 315.35 1097.06 315.722 1097.37 316.139C1097.69 316.55 1097.93 316.888 1098.1 317.153H1098.34V314.727H1100.61V330.438C1100.61 331.75 1100.31 332.817 1099.72 333.639C1099.13 334.468 1098.33 335.074 1097.33 335.459C1096.33 335.85 1095.23 336.045 1094.01 336.045ZM1093.93 327.653C1094.87 327.653 1095.67 327.438 1096.31 327.007C1096.96 326.576 1097.46 325.956 1097.8 325.148C1098.13 324.339 1098.3 323.371 1098.3 322.244C1098.3 321.144 1098.14 320.173 1097.81 319.331C1097.47 318.489 1096.98 317.83 1096.33 317.352C1095.68 316.875 1094.88 316.636 1093.93 316.636C1092.93 316.636 1092.11 316.888 1091.44 317.392C1090.79 317.896 1090.29 318.572 1089.96 319.42C1089.64 320.269 1089.47 321.21 1089.47 322.244C1089.47 323.305 1089.64 324.243 1089.97 325.058C1090.31 325.867 1090.81 326.503 1091.46 326.967C1092.13 327.425 1092.95 327.653 1093.93 327.653ZM1107.25 320.812V330H1104.91V314.727H1107.17V317.114H1107.37C1107.73 316.338 1108.27 315.715 1109 315.244C1109.73 314.767 1110.67 314.528 1111.83 314.528C1112.86 314.528 1113.76 314.741 1114.54 315.165C1115.32 315.582 1115.92 316.219 1116.35 317.074C1116.78 317.922 1117 318.996 1117 320.295V330H1114.65V320.455C1114.65 319.255 1114.34 318.32 1113.72 317.651C1113.09 316.974 1112.24 316.636 1111.15 316.636C1110.4 316.636 1109.73 316.799 1109.14 317.124C1108.56 317.448 1108.1 317.922 1107.76 318.545C1107.42 319.169 1107.25 319.924 1107.25 320.812ZM1135.76 330H1129.48V309.636H1136.04C1138.02 309.636 1139.71 310.044 1141.11 310.859C1142.52 311.668 1143.59 312.831 1144.34 314.349C1145.09 315.861 1145.47 317.67 1145.47 319.778C1145.47 321.9 1145.09 323.726 1144.33 325.257C1143.58 326.782 1142.48 327.955 1141.03 328.777C1139.59 329.592 1137.83 330 1135.76 330ZM1131.94 327.812H1135.6C1137.29 327.812 1138.68 327.488 1139.79 326.838C1140.9 326.188 1141.72 325.264 1142.26 324.064C1142.81 322.864 1143.08 321.436 1143.08 319.778C1143.08 318.134 1142.81 316.719 1142.27 315.533C1141.74 314.339 1140.94 313.425 1139.87 312.788C1138.8 312.145 1137.47 311.824 1135.88 311.824H1131.94V327.812ZM1153.78 330.358C1152.81 330.358 1151.93 330.176 1151.14 329.811C1150.35 329.44 1149.73 328.906 1149.26 328.21C1148.8 327.508 1148.57 326.659 1148.57 325.665C1148.57 324.79 1148.74 324.08 1149.09 323.537C1149.43 322.987 1149.89 322.556 1150.47 322.244C1151.04 321.933 1151.68 321.701 1152.38 321.548C1153.08 321.389 1153.79 321.263 1154.49 321.17C1155.42 321.051 1156.18 320.962 1156.75 320.902C1157.34 320.836 1157.76 320.726 1158.02 320.574C1158.3 320.421 1158.43 320.156 1158.43 319.778V319.699C1158.43 318.718 1158.16 317.955 1157.63 317.412C1157.1 316.868 1156.29 316.597 1155.21 316.597C1154.09 316.597 1153.21 316.842 1152.58 317.332C1151.94 317.823 1151.49 318.347 1151.23 318.903L1149.01 318.108C1149.4 317.18 1149.93 316.457 1150.6 315.94C1151.27 315.417 1152 315.052 1152.78 314.847C1153.58 314.634 1154.36 314.528 1155.13 314.528C1155.62 314.528 1156.19 314.588 1156.82 314.707C1157.46 314.82 1158.08 315.055 1158.68 315.413C1159.28 315.771 1159.78 316.312 1160.18 317.034C1160.58 317.757 1160.78 318.724 1160.78 319.938V330H1158.43V327.932H1158.31C1158.15 328.263 1157.89 328.618 1157.52 328.996C1157.15 329.374 1156.65 329.695 1156.04 329.96C1155.42 330.225 1154.67 330.358 1153.78 330.358ZM1154.14 328.25C1155.06 328.25 1155.85 328.068 1156.48 327.703C1157.13 327.339 1157.61 326.868 1157.94 326.291C1158.27 325.714 1158.43 325.108 1158.43 324.472V322.324C1158.33 322.443 1158.11 322.553 1157.78 322.652C1157.44 322.745 1157.06 322.828 1156.62 322.901C1156.19 322.967 1155.77 323.027 1155.36 323.08C1154.96 323.126 1154.63 323.166 1154.38 323.199C1153.77 323.278 1153.2 323.408 1152.67 323.587C1152.14 323.759 1151.72 324.021 1151.39 324.372C1151.07 324.717 1150.92 325.187 1150.92 325.784C1150.92 326.599 1151.22 327.216 1151.82 327.634C1152.43 328.045 1153.2 328.25 1154.14 328.25ZM1171.7 314.727V316.716H1163.79V314.727H1171.7ZM1166.1 311.068H1168.44V325.625C1168.44 326.288 1168.54 326.785 1168.73 327.116C1168.93 327.441 1169.18 327.66 1169.49 327.773C1169.8 327.879 1170.13 327.932 1170.47 327.932C1170.73 327.932 1170.94 327.919 1171.11 327.892C1171.27 327.859 1171.41 327.832 1171.5 327.812L1171.98 329.92C1171.82 329.98 1171.6 330.04 1171.32 330.099C1171.03 330.166 1170.67 330.199 1170.23 330.199C1169.57 330.199 1168.92 330.056 1168.28 329.771C1167.65 329.486 1167.13 329.052 1166.71 328.469C1166.3 327.885 1166.1 327.15 1166.1 326.261V311.068ZM1179.73 330.358C1178.76 330.358 1177.88 330.176 1177.09 329.811C1176.3 329.44 1175.68 328.906 1175.21 328.21C1174.75 327.508 1174.52 326.659 1174.52 325.665C1174.52 324.79 1174.69 324.08 1175.03 323.537C1175.38 322.987 1175.84 322.556 1176.42 322.244C1176.99 321.933 1177.63 321.701 1178.33 321.548C1179.03 321.389 1179.73 321.263 1180.44 321.17C1181.37 321.051 1182.12 320.962 1182.7 320.902C1183.28 320.836 1183.71 320.726 1183.97 320.574C1184.25 320.421 1184.38 320.156 1184.38 319.778V319.699C1184.38 318.718 1184.11 317.955 1183.58 317.412C1183.05 316.868 1182.24 316.597 1181.16 316.597C1180.04 316.597 1179.16 316.842 1178.52 317.332C1177.89 317.823 1177.44 318.347 1177.18 318.903L1174.96 318.108C1175.35 317.18 1175.88 316.457 1176.55 315.94C1177.22 315.417 1177.94 315.052 1178.73 314.847C1179.53 314.634 1180.31 314.528 1181.08 314.528C1181.57 314.528 1182.13 314.588 1182.77 314.707C1183.41 314.82 1184.03 315.055 1184.63 315.413C1185.23 315.771 1185.73 316.312 1186.13 317.034C1186.53 317.757 1186.73 318.724 1186.73 319.938V330H1184.38V327.932H1184.26C1184.1 328.263 1183.84 328.618 1183.47 328.996C1183.1 329.374 1182.6 329.695 1181.99 329.96C1181.37 330.225 1180.62 330.358 1179.73 330.358ZM1180.09 328.25C1181.01 328.25 1181.8 328.068 1182.43 327.703C1183.08 327.339 1183.56 326.868 1183.88 326.291C1184.22 325.714 1184.38 325.108 1184.38 324.472V322.324C1184.28 322.443 1184.06 322.553 1183.73 322.652C1183.39 322.745 1183.01 322.828 1182.57 322.901C1182.14 322.967 1181.72 323.027 1181.31 323.08C1180.9 323.126 1180.58 323.166 1180.32 323.199C1179.71 323.278 1179.14 323.408 1178.61 323.587C1178.09 323.759 1177.67 324.021 1177.34 324.372C1177.02 324.717 1176.86 325.187 1176.86 325.784C1176.86 326.599 1177.17 327.216 1177.77 327.634C1178.38 328.045 1179.15 328.25 1180.09 328.25ZM1210.34 314.727C1210.22 313.72 1209.74 312.938 1208.89 312.381C1208.04 311.824 1207 311.545 1205.77 311.545C1204.87 311.545 1204.08 311.691 1203.4 311.983C1202.73 312.275 1202.21 312.676 1201.83 313.186C1201.46 313.696 1201.27 314.277 1201.27 314.926C1201.27 315.47 1201.4 315.937 1201.66 316.328C1201.93 316.713 1202.26 317.034 1202.67 317.293C1203.09 317.545 1203.52 317.753 1203.97 317.919C1204.42 318.078 1204.83 318.207 1205.21 318.307L1207.28 318.864C1207.81 319.003 1208.4 319.195 1209.05 319.44C1209.7 319.686 1210.33 320.02 1210.93 320.445C1211.53 320.862 1212.03 321.399 1212.42 322.055C1212.81 322.712 1213.01 323.517 1213.01 324.472C1213.01 325.572 1212.72 326.566 1212.14 327.455C1211.57 328.343 1210.73 329.049 1209.63 329.572C1208.54 330.096 1207.21 330.358 1205.65 330.358C1204.19 330.358 1202.93 330.123 1201.86 329.652C1200.8 329.181 1199.96 328.525 1199.35 327.683C1198.75 326.841 1198.41 325.864 1198.33 324.75H1200.87C1200.94 325.519 1201.2 326.155 1201.65 326.659C1202.11 327.156 1202.68 327.527 1203.38 327.773C1204.08 328.011 1204.84 328.131 1205.65 328.131C1206.59 328.131 1207.43 327.978 1208.18 327.673C1208.93 327.362 1209.53 326.931 1209.96 326.381C1210.4 325.824 1210.62 325.174 1210.62 324.432C1210.62 323.756 1210.43 323.205 1210.05 322.781C1209.67 322.357 1209.18 322.012 1208.56 321.747C1207.94 321.482 1207.28 321.25 1206.56 321.051L1204.06 320.335C1202.47 319.878 1201.21 319.225 1200.28 318.376C1199.35 317.528 1198.89 316.418 1198.89 315.045C1198.89 313.905 1199.19 312.911 1199.81 312.062C1200.43 311.207 1201.27 310.545 1202.32 310.074C1203.37 309.597 1204.55 309.358 1205.85 309.358C1207.16 309.358 1208.33 309.593 1209.35 310.064C1210.37 310.528 1211.18 311.164 1211.77 311.973C1212.38 312.782 1212.69 313.7 1212.73 314.727H1210.34ZM1223.38 314.727V316.716H1215.47V314.727H1223.38ZM1217.78 311.068H1220.12V325.625C1220.12 326.288 1220.22 326.785 1220.41 327.116C1220.61 327.441 1220.86 327.66 1221.17 327.773C1221.48 327.879 1221.81 327.932 1222.15 327.932C1222.41 327.932 1222.62 327.919 1222.79 327.892C1222.95 327.859 1223.09 327.832 1223.18 327.812L1223.66 329.92C1223.5 329.98 1223.28 330.04 1223 330.099C1222.71 330.166 1222.35 330.199 1221.91 330.199C1221.25 330.199 1220.6 330.056 1219.96 329.771C1219.33 329.486 1218.81 329.052 1218.39 328.469C1217.98 327.885 1217.78 327.15 1217.78 326.261V311.068ZM1226.91 330V314.727H1229.18V317.034H1229.34C1229.62 316.278 1230.12 315.665 1230.85 315.195C1231.58 314.724 1232.4 314.489 1233.32 314.489C1233.49 314.489 1233.7 314.492 1233.96 314.499C1234.22 314.505 1234.42 314.515 1234.55 314.528V316.915C1234.47 316.895 1234.29 316.865 1234 316.825C1233.72 316.779 1233.43 316.756 1233.12 316.756C1232.38 316.756 1231.71 316.911 1231.13 317.223C1230.55 317.528 1230.1 317.952 1229.76 318.496C1229.43 319.033 1229.26 319.646 1229.26 320.335V330H1226.91ZM1246.96 323.756V314.727H1249.3V330H1246.96V327.415H1246.8C1246.44 328.19 1245.88 328.85 1245.13 329.393C1244.37 329.93 1243.42 330.199 1242.26 330.199C1241.31 330.199 1240.46 329.99 1239.72 329.572C1238.98 329.148 1238.39 328.512 1237.97 327.663C1237.54 326.808 1237.33 325.731 1237.33 324.432V314.727H1239.68V324.273C1239.68 325.386 1239.99 326.275 1240.61 326.938C1241.24 327.6 1242.04 327.932 1243.02 327.932C1243.6 327.932 1244.2 327.783 1244.8 327.484C1245.41 327.186 1245.92 326.729 1246.33 326.112C1246.75 325.496 1246.96 324.71 1246.96 323.756ZM1259.81 330.318C1258.37 330.318 1257.14 329.98 1256.11 329.304C1255.07 328.628 1254.28 327.696 1253.72 326.51C1253.16 325.323 1252.88 323.968 1252.88 322.443C1252.88 320.892 1253.17 319.523 1253.74 318.337C1254.32 317.143 1255.12 316.212 1256.15 315.543C1257.18 314.866 1258.39 314.528 1259.77 314.528C1260.84 314.528 1261.81 314.727 1262.67 315.125C1263.53 315.523 1264.24 316.08 1264.79 316.795C1265.34 317.511 1265.68 318.347 1265.81 319.301H1263.46C1263.29 318.605 1262.89 317.989 1262.27 317.452C1261.66 316.908 1260.84 316.636 1259.81 316.636C1258.89 316.636 1258.09 316.875 1257.4 317.352C1256.72 317.823 1256.18 318.489 1255.8 319.351C1255.42 320.206 1255.23 321.21 1255.23 322.364C1255.23 323.544 1255.42 324.571 1255.79 325.446C1256.17 326.321 1256.7 327 1257.38 327.484C1258.07 327.968 1258.88 328.21 1259.81 328.21C1260.42 328.21 1260.97 328.104 1261.47 327.892C1261.96 327.68 1262.38 327.375 1262.73 326.977C1263.07 326.58 1263.32 326.102 1263.46 325.545H1265.81C1265.68 326.447 1265.35 327.259 1264.83 327.982C1264.31 328.697 1263.62 329.268 1262.77 329.692C1261.92 330.109 1260.93 330.318 1259.81 330.318ZM1275.88 314.727V316.716H1267.97V314.727H1275.88ZM1270.28 311.068H1272.62V325.625C1272.62 326.288 1272.72 326.785 1272.91 327.116C1273.11 327.441 1273.36 327.66 1273.67 327.773C1273.98 327.879 1274.31 327.932 1274.65 327.932C1274.91 327.932 1275.12 327.919 1275.29 327.892C1275.45 327.859 1275.59 327.832 1275.68 327.812L1276.16 329.92C1276 329.98 1275.78 330.04 1275.5 330.099C1275.21 330.166 1274.85 330.199 1274.41 330.199C1273.75 330.199 1273.1 330.056 1272.46 329.771C1271.83 329.486 1271.31 329.052 1270.89 328.469C1270.48 327.885 1270.28 327.15 1270.28 326.261V311.068ZM1289.04 323.756V314.727H1291.38V330H1289.04V327.415H1288.88C1288.52 328.19 1287.96 328.85 1287.21 329.393C1286.45 329.93 1285.5 330.199 1284.35 330.199C1283.39 330.199 1282.54 329.99 1281.8 329.572C1281.06 329.148 1280.47 328.512 1280.05 327.663C1279.63 326.808 1279.41 325.731 1279.41 324.432V314.727H1281.76V324.273C1281.76 325.386 1282.07 326.275 1282.69 326.938C1283.32 327.6 1284.13 327.932 1285.1 327.932C1285.68 327.932 1286.28 327.783 1286.88 327.484C1287.49 327.186 1288 326.729 1288.41 326.112C1288.83 325.496 1289.04 324.71 1289.04 323.756ZM1295.68 330V314.727H1297.95V317.034H1298.11C1298.39 316.278 1298.89 315.665 1299.62 315.195C1300.35 314.724 1301.17 314.489 1302.09 314.489C1302.26 314.489 1302.47 314.492 1302.73 314.499C1302.99 314.505 1303.19 314.515 1303.32 314.528V316.915C1303.24 316.895 1303.06 316.865 1302.77 316.825C1302.49 316.779 1302.2 316.756 1301.89 316.756C1301.15 316.756 1300.48 316.911 1299.9 317.223C1299.32 317.528 1298.86 317.952 1298.53 318.496C1298.2 319.033 1298.03 319.646 1298.03 320.335V330H1295.68ZM1312.04 330.318C1310.57 330.318 1309.3 329.993 1308.23 329.344C1307.17 328.688 1306.35 327.773 1305.78 326.599C1305.21 325.42 1304.92 324.047 1304.92 322.483C1304.92 320.919 1305.21 319.54 1305.78 318.347C1306.35 317.147 1307.15 316.212 1308.18 315.543C1309.22 314.866 1310.42 314.528 1311.8 314.528C1312.6 314.528 1313.38 314.661 1314.16 314.926C1314.93 315.191 1315.64 315.622 1316.28 316.219C1316.91 316.809 1317.42 317.591 1317.8 318.565C1318.17 319.54 1318.36 320.74 1318.36 322.165V323.159H1306.59V321.131H1315.98C1315.98 320.269 1315.8 319.5 1315.46 318.824C1315.12 318.148 1314.64 317.614 1314.01 317.223C1313.39 316.832 1312.65 316.636 1311.8 316.636C1310.87 316.636 1310.06 316.868 1309.37 317.332C1308.7 317.79 1308.18 318.386 1307.81 319.122C1307.45 319.858 1307.27 320.647 1307.27 321.489V322.841C1307.27 323.994 1307.47 324.972 1307.86 325.774C1308.27 326.57 1308.83 327.176 1309.54 327.594C1310.26 328.005 1311.09 328.21 1312.04 328.21C1312.66 328.21 1313.21 328.124 1313.71 327.952C1314.21 327.773 1314.65 327.508 1315.01 327.156C1315.38 326.798 1315.66 326.354 1315.86 325.824L1318.12 326.46C1317.89 327.229 1317.48 327.905 1316.92 328.489C1316.36 329.065 1315.66 329.516 1314.83 329.841C1314 330.159 1313.07 330.318 1312.04 330.318ZM1332.75 318.148L1330.64 318.744C1330.51 318.393 1330.31 318.052 1330.06 317.72C1329.8 317.382 1329.46 317.104 1329.02 316.885C1328.58 316.666 1328.02 316.557 1327.34 316.557C1326.41 316.557 1325.63 316.772 1325.01 317.203C1324.39 317.627 1324.08 318.168 1324.08 318.824C1324.08 319.407 1324.29 319.868 1324.72 320.206C1325.14 320.544 1325.8 320.826 1326.71 321.051L1328.97 321.608C1330.34 321.939 1331.36 322.446 1332.03 323.129C1332.69 323.805 1333.03 324.677 1333.03 325.744C1333.03 326.619 1332.78 327.402 1332.27 328.091C1331.78 328.78 1331.08 329.324 1330.19 329.722C1329.29 330.119 1328.25 330.318 1327.06 330.318C1325.51 330.318 1324.22 329.98 1323.2 329.304C1322.17 328.628 1321.53 327.64 1321.26 326.341L1323.48 325.784C1323.7 326.606 1324.1 327.223 1324.69 327.634C1325.28 328.045 1326.06 328.25 1327.02 328.25C1328.12 328.25 1328.99 328.018 1329.63 327.554C1330.28 327.083 1330.6 326.52 1330.6 325.864C1330.6 325.333 1330.42 324.889 1330.05 324.531C1329.68 324.167 1329.11 323.895 1328.34 323.716L1325.79 323.119C1324.39 322.788 1323.36 322.274 1322.71 321.578C1322.06 320.875 1321.73 319.997 1321.73 318.943C1321.73 318.081 1321.98 317.319 1322.46 316.656C1322.95 315.993 1323.62 315.473 1324.46 315.095C1325.31 314.717 1326.27 314.528 1327.34 314.528C1328.85 314.528 1330.04 314.86 1330.9 315.523C1331.77 316.186 1332.39 317.061 1332.75 318.148Z" fill="#27272A"/>
</g>
<g filter="url(#filter2_d_3580_17943)">
<rect x="1146" y="546" width="800" height="132" rx="6" fill="#FAFAFA" shape-rendering="crispEdges"/>
<rect x="1146.5" y="546.5" width="799" height="131" rx="5.5" stroke="#E5E7EB" shape-rendering="crispEdges"/>
<path d="M1172.01 600V579.636H1179.64C1181.21 579.636 1182.52 579.928 1183.58 580.511C1184.65 581.095 1185.46 581.897 1186 582.918C1186.55 583.932 1186.82 585.085 1186.82 586.378C1186.82 587.684 1186.55 588.844 1186 589.858C1185.45 590.872 1184.64 591.671 1183.56 592.254C1182.49 592.831 1181.17 593.119 1179.6 593.119H1174.53V590.087H1179.1C1180.01 590.087 1180.76 589.928 1181.35 589.609C1181.93 589.291 1182.36 588.854 1182.64 588.297C1182.92 587.74 1183.07 587.1 1183.07 586.378C1183.07 585.655 1182.92 585.019 1182.64 584.469C1182.36 583.919 1181.93 583.491 1181.34 583.186C1180.75 582.875 1180 582.719 1179.08 582.719H1175.7V600H1172.01ZM1199.6 593.577V584.727H1203.2V600H1199.71V597.286H1199.55C1199.21 598.141 1198.64 598.84 1197.85 599.384C1197.07 599.927 1196.11 600.199 1194.96 600.199C1193.96 600.199 1193.07 599.977 1192.31 599.533C1191.54 599.082 1190.95 598.429 1190.52 597.574C1190.08 596.712 1189.87 595.671 1189.87 594.452V584.727H1193.47V593.895C1193.47 594.863 1193.73 595.632 1194.26 596.202C1194.79 596.772 1195.49 597.057 1196.35 597.057C1196.88 597.057 1197.4 596.928 1197.89 596.669C1198.39 596.411 1198.8 596.026 1199.12 595.516C1199.44 594.999 1199.6 594.352 1199.6 593.577ZM1207.06 600V579.636H1210.66V587.253H1210.81C1211 586.882 1211.26 586.487 1211.6 586.07C1211.94 585.645 1212.39 585.284 1212.97 584.986C1213.55 584.681 1214.28 584.528 1215.18 584.528C1216.36 584.528 1217.42 584.83 1218.37 585.433C1219.32 586.03 1220.08 586.915 1220.64 588.088C1221.2 589.255 1221.48 590.687 1221.48 592.384C1221.48 594.061 1221.21 595.486 1220.66 596.659C1220.11 597.832 1219.36 598.727 1218.41 599.344C1217.46 599.96 1216.39 600.268 1215.19 600.268C1214.31 600.268 1213.59 600.123 1213.01 599.831C1212.43 599.539 1211.97 599.188 1211.62 598.777C1211.27 598.359 1211 597.965 1210.81 597.594H1210.6V600H1207.06ZM1210.59 592.364C1210.59 593.351 1210.73 594.216 1211.01 594.959C1211.3 595.701 1211.7 596.281 1212.23 596.699C1212.77 597.11 1213.42 597.315 1214.18 597.315C1214.98 597.315 1215.64 597.103 1216.18 596.679C1216.72 596.248 1217.12 595.661 1217.39 594.919C1217.67 594.17 1217.81 593.318 1217.81 592.364C1217.81 591.416 1217.68 590.574 1217.4 589.838C1217.13 589.102 1216.73 588.526 1216.19 588.108C1215.65 587.69 1214.98 587.482 1214.18 587.482C1213.41 587.482 1212.76 587.684 1212.22 588.088C1211.69 588.492 1211.28 589.059 1211 589.788C1210.73 590.518 1210.59 591.376 1210.59 592.364ZM1228.14 579.636V600H1224.54V579.636H1228.14ZM1231.84 600V584.727H1235.44V600H1231.84ZM1233.65 582.56C1233.08 582.56 1232.59 582.371 1232.18 581.993C1231.77 581.608 1231.56 581.148 1231.56 580.611C1231.56 580.067 1231.77 579.607 1232.18 579.229C1232.59 578.844 1233.08 578.652 1233.65 578.652C1234.23 578.652 1234.72 578.844 1235.12 579.229C1235.53 579.607 1235.74 580.067 1235.74 580.611C1235.74 581.148 1235.53 581.608 1235.12 581.993C1234.72 582.371 1234.23 582.56 1233.65 582.56ZM1245.8 600.298C1244.28 600.298 1242.97 599.964 1241.88 599.294C1240.79 598.625 1239.95 597.7 1239.36 596.52C1238.78 595.333 1238.49 593.968 1238.49 592.423C1238.49 590.872 1238.78 589.503 1239.38 588.317C1239.98 587.124 1240.82 586.196 1241.91 585.533C1243 584.863 1244.29 584.528 1245.78 584.528C1247.02 584.528 1248.12 584.757 1249.08 585.214C1250.04 585.665 1250.8 586.305 1251.37 587.134C1251.94 587.955 1252.27 588.917 1252.35 590.017H1248.91C1248.77 589.281 1248.44 588.668 1247.91 588.178C1247.4 587.68 1246.7 587.432 1245.83 587.432C1245.1 587.432 1244.45 587.631 1243.9 588.028C1243.34 588.42 1242.9 588.983 1242.59 589.719C1242.29 590.455 1242.14 591.336 1242.14 592.364C1242.14 593.404 1242.29 594.299 1242.59 595.048C1242.9 595.791 1243.33 596.364 1243.88 596.768C1244.43 597.166 1245.09 597.365 1245.83 597.365C1246.36 597.365 1246.84 597.266 1247.26 597.067C1247.68 596.861 1248.03 596.566 1248.32 596.182C1248.6 595.797 1248.8 595.33 1248.91 594.78H1252.35C1252.26 595.86 1251.94 596.818 1251.39 597.653C1250.84 598.482 1250.09 599.132 1249.15 599.602C1248.2 600.066 1247.08 600.298 1245.8 600.298ZM1265.02 600H1261.08L1268.25 579.636H1272.81L1279.99 600H1276.05L1270.61 583.812H1270.45L1265.02 600ZM1265.15 592.016H1275.89V594.979H1265.15V592.016ZM1282.67 600V579.636H1290.31C1291.87 579.636 1293.18 579.928 1294.24 580.511C1295.31 581.095 1296.12 581.897 1296.66 582.918C1297.21 583.932 1297.48 585.085 1297.48 586.378C1297.48 587.684 1297.21 588.844 1296.66 589.858C1296.11 590.872 1295.3 591.671 1294.22 592.254C1293.15 592.831 1291.83 593.119 1290.26 593.119H1285.19V590.087H1289.76C1290.67 590.087 1291.42 589.928 1292.01 589.609C1292.59 589.291 1293.02 588.854 1293.3 588.297C1293.58 587.74 1293.73 587.1 1293.73 586.378C1293.73 585.655 1293.58 585.019 1293.3 584.469C1293.02 583.919 1292.59 583.491 1292 583.186C1291.41 582.875 1290.66 582.719 1289.74 582.719H1286.36V600H1282.67ZM1304.38 579.636V600H1300.69V579.636H1304.38Z" fill="#27272A"/>
<path d="M1172.47 644V623.636H1184.76V625.824H1174.93V632.705H1184.12V634.892H1174.93V641.812H1184.91V644H1172.47ZM1199.7 632.148L1197.59 632.744C1197.46 632.393 1197.26 632.052 1197.01 631.72C1196.75 631.382 1196.41 631.104 1195.97 630.885C1195.53 630.666 1194.97 630.557 1194.29 630.557C1193.36 630.557 1192.58 630.772 1191.95 631.203C1191.34 631.627 1191.03 632.168 1191.03 632.824C1191.03 633.407 1191.24 633.868 1191.67 634.206C1192.09 634.544 1192.75 634.826 1193.65 635.051L1195.92 635.608C1197.29 635.939 1198.3 636.446 1198.97 637.129C1199.64 637.805 1199.98 638.677 1199.98 639.744C1199.98 640.619 1199.73 641.402 1199.22 642.091C1198.73 642.78 1198.03 643.324 1197.13 643.722C1196.24 644.119 1195.2 644.318 1194.01 644.318C1192.46 644.318 1191.17 643.98 1190.14 643.304C1189.12 642.628 1188.48 641.64 1188.21 640.341L1190.43 639.784C1190.65 640.606 1191.05 641.223 1191.64 641.634C1192.23 642.045 1193.01 642.25 1193.97 642.25C1195.07 642.25 1195.94 642.018 1196.58 641.554C1197.23 641.083 1197.55 640.52 1197.55 639.864C1197.55 639.333 1197.37 638.889 1197 638.531C1196.62 638.167 1196.05 637.895 1195.29 637.716L1192.74 637.119C1191.34 636.788 1190.31 636.274 1189.66 635.578C1189.01 634.875 1188.68 633.997 1188.68 632.943C1188.68 632.081 1188.93 631.319 1189.41 630.656C1189.9 629.993 1190.57 629.473 1191.41 629.095C1192.26 628.717 1193.22 628.528 1194.29 628.528C1195.8 628.528 1196.99 628.86 1197.85 629.523C1198.72 630.186 1199.34 631.061 1199.7 632.148ZM1210.15 628.727V630.716H1202.24V628.727H1210.15ZM1204.55 625.068H1206.89V639.625C1206.89 640.288 1206.99 640.785 1207.18 641.116C1207.38 641.441 1207.63 641.66 1207.94 641.773C1208.25 641.879 1208.58 641.932 1208.92 641.932C1209.18 641.932 1209.39 641.919 1209.56 641.892C1209.72 641.859 1209.85 641.832 1209.95 641.812L1210.43 643.92C1210.27 643.98 1210.05 644.04 1209.77 644.099C1209.48 644.166 1209.12 644.199 1208.68 644.199C1208.02 644.199 1207.37 644.056 1206.73 643.771C1206.1 643.486 1205.58 643.052 1205.16 642.469C1204.75 641.885 1204.55 641.15 1204.55 640.261V625.068ZM1218.18 644.358C1217.21 644.358 1216.33 644.176 1215.54 643.811C1214.75 643.44 1214.13 642.906 1213.66 642.21C1213.2 641.508 1212.97 640.659 1212.97 639.665C1212.97 638.79 1213.14 638.08 1213.48 637.537C1213.83 636.987 1214.29 636.556 1214.87 636.244C1215.44 635.933 1216.08 635.701 1216.78 635.548C1217.48 635.389 1218.18 635.263 1218.89 635.17C1219.82 635.051 1220.57 634.962 1221.15 634.902C1221.73 634.836 1222.16 634.726 1222.42 634.574C1222.69 634.421 1222.83 634.156 1222.83 633.778V633.699C1222.83 632.718 1222.56 631.955 1222.03 631.412C1221.49 630.868 1220.69 630.597 1219.61 630.597C1218.49 630.597 1217.61 630.842 1216.97 631.332C1216.34 631.823 1215.89 632.347 1215.63 632.903L1213.4 632.108C1213.8 631.18 1214.33 630.457 1215 629.94C1215.66 629.417 1216.39 629.052 1217.18 628.847C1217.98 628.634 1218.76 628.528 1219.53 628.528C1220.02 628.528 1220.58 628.588 1221.22 628.707C1221.86 628.82 1222.48 629.055 1223.08 629.413C1223.68 629.771 1224.18 630.312 1224.58 631.034C1224.98 631.757 1225.18 632.724 1225.18 633.938V644H1222.83V641.932H1222.71C1222.55 642.263 1222.29 642.618 1221.92 642.996C1221.54 643.374 1221.05 643.695 1220.43 643.96C1219.82 644.225 1219.07 644.358 1218.18 644.358ZM1218.54 642.25C1219.46 642.25 1220.25 642.068 1220.88 641.703C1221.52 641.339 1222.01 640.868 1222.33 640.291C1222.66 639.714 1222.83 639.108 1222.83 638.472V636.324C1222.73 636.443 1222.51 636.553 1222.17 636.652C1221.84 636.745 1221.46 636.828 1221.02 636.901C1220.59 636.967 1220.17 637.027 1219.76 637.08C1219.35 637.126 1219.03 637.166 1218.77 637.199C1218.16 637.278 1217.59 637.408 1217.06 637.587C1216.54 637.759 1216.12 638.021 1215.79 638.372C1215.47 638.717 1215.31 639.187 1215.31 639.784C1215.31 640.599 1215.62 641.216 1216.22 641.634C1216.83 642.045 1217.6 642.25 1218.54 642.25ZM1229.78 644V623.636H1232.12V631.153H1232.32C1232.5 630.888 1232.73 630.55 1233.04 630.139C1233.35 629.722 1233.8 629.35 1234.37 629.026C1234.96 628.694 1235.74 628.528 1236.74 628.528C1238.02 628.528 1239.16 628.85 1240.14 629.493C1241.12 630.136 1241.89 631.047 1242.44 632.227C1242.99 633.407 1243.26 634.799 1243.26 636.403C1243.26 638.021 1242.99 639.423 1242.44 640.609C1241.89 641.789 1241.12 642.704 1240.15 643.354C1239.17 643.997 1238.05 644.318 1236.78 644.318C1235.8 644.318 1235.01 644.156 1234.42 643.831C1233.83 643.5 1233.38 643.125 1233.06 642.707C1232.74 642.283 1232.5 641.932 1232.32 641.653H1232.05V644H1229.78ZM1232.09 636.364C1232.09 637.517 1232.25 638.535 1232.59 639.416C1232.93 640.291 1233.42 640.977 1234.07 641.474C1234.72 641.965 1235.52 642.21 1236.46 642.21C1237.44 642.21 1238.26 641.952 1238.92 641.435C1239.58 640.911 1240.08 640.208 1240.41 639.327C1240.75 638.438 1240.91 637.451 1240.91 636.364C1240.91 635.29 1240.75 634.322 1240.42 633.46C1240.09 632.592 1239.6 631.906 1238.94 631.402C1238.28 630.892 1237.45 630.636 1236.46 630.636C1235.51 630.636 1234.7 630.878 1234.05 631.362C1233.4 631.839 1232.91 632.509 1232.58 633.371C1232.25 634.226 1232.09 635.223 1232.09 636.364ZM1249.2 623.636V644H1246.85V623.636H1249.2ZM1253.5 644V628.727H1255.84V644H1253.5ZM1254.69 626.182C1254.23 626.182 1253.84 626.026 1253.51 625.714C1253.18 625.403 1253.02 625.028 1253.02 624.591C1253.02 624.153 1253.18 623.779 1253.51 623.467C1253.84 623.156 1254.23 623 1254.69 623C1255.15 623 1255.54 623.156 1255.86 623.467C1256.19 623.779 1256.36 624.153 1256.36 624.591C1256.36 625.028 1256.19 625.403 1255.86 625.714C1255.54 626.026 1255.15 626.182 1254.69 626.182ZM1270.96 632.148L1268.85 632.744C1268.72 632.393 1268.52 632.052 1268.26 631.72C1268.01 631.382 1267.67 631.104 1267.23 630.885C1266.79 630.666 1266.23 630.557 1265.55 630.557C1264.61 630.557 1263.84 630.772 1263.21 631.203C1262.6 631.627 1262.29 632.168 1262.29 632.824C1262.29 633.407 1262.5 633.868 1262.92 634.206C1263.35 634.544 1264.01 634.826 1264.91 635.051L1267.18 635.608C1268.55 635.939 1269.56 636.446 1270.23 637.129C1270.9 637.805 1271.24 638.677 1271.24 639.744C1271.24 640.619 1270.98 641.402 1270.48 642.091C1269.98 642.78 1269.29 643.324 1268.39 643.722C1267.5 644.119 1266.46 644.318 1265.27 644.318C1263.71 644.318 1262.42 643.98 1261.4 643.304C1260.38 642.628 1259.74 641.64 1259.46 640.341L1261.69 639.784C1261.9 640.606 1262.3 641.223 1262.89 641.634C1263.49 642.045 1264.27 642.25 1265.23 642.25C1266.32 642.25 1267.19 642.018 1267.84 641.554C1268.49 641.083 1268.81 640.52 1268.81 639.864C1268.81 639.333 1268.62 638.889 1268.25 638.531C1267.88 638.167 1267.31 637.895 1266.54 637.716L1264 637.119C1262.6 636.788 1261.57 636.274 1260.92 635.578C1260.27 634.875 1259.94 633.997 1259.94 632.943C1259.94 632.081 1260.18 631.319 1260.67 630.656C1261.16 629.993 1261.82 629.473 1262.67 629.095C1263.51 628.717 1264.48 628.528 1265.55 628.528C1267.06 628.528 1268.25 628.86 1269.11 629.523C1269.98 630.186 1270.59 631.061 1270.96 632.148ZM1277.12 634.812V644H1274.77V623.636H1277.12V631.114H1277.31C1277.67 630.325 1278.21 629.698 1278.93 629.234C1279.65 628.764 1280.61 628.528 1281.81 628.528C1282.85 628.528 1283.76 628.737 1284.54 629.155C1285.33 629.566 1285.93 630.199 1286.36 631.054C1286.8 631.902 1287.02 632.983 1287.02 634.295V644H1284.67V634.455C1284.67 633.241 1284.36 632.304 1283.73 631.641C1283.1 630.971 1282.24 630.636 1281.13 630.636C1280.36 630.636 1279.67 630.799 1279.06 631.124C1278.46 631.448 1277.98 631.922 1277.63 632.545C1277.29 633.169 1277.12 633.924 1277.12 634.812ZM1300.34 644H1297.75L1305.23 623.636H1307.78L1315.25 644H1312.67L1306.58 626.858H1306.43L1300.34 644ZM1301.29 636.045H1311.72V638.233H1301.29V636.045ZM1327.73 637.756V628.727H1330.08V644H1327.73V641.415H1327.57C1327.22 642.19 1326.66 642.85 1325.9 643.393C1325.15 643.93 1324.19 644.199 1323.04 644.199C1322.09 644.199 1321.24 643.99 1320.5 643.572C1319.75 643.148 1319.17 642.512 1318.75 641.663C1318.32 640.808 1318.11 639.731 1318.11 638.432V628.727H1320.46V638.273C1320.46 639.386 1320.77 640.275 1321.39 640.938C1322.02 641.6 1322.82 641.932 1323.8 641.932C1324.38 641.932 1324.97 641.783 1325.58 641.484C1326.19 641.186 1326.7 640.729 1327.11 640.112C1327.52 639.496 1327.73 638.71 1327.73 637.756ZM1341.02 628.727V630.716H1333.11V628.727H1341.02ZM1335.41 625.068H1337.76V639.625C1337.76 640.288 1337.85 640.785 1338.05 641.116C1338.25 641.441 1338.5 641.66 1338.8 641.773C1339.11 641.879 1339.44 641.932 1339.79 641.932C1340.05 641.932 1340.26 641.919 1340.42 641.892C1340.59 641.859 1340.72 641.832 1340.82 641.812L1341.3 643.92C1341.14 643.98 1340.92 644.04 1340.63 644.099C1340.35 644.166 1339.99 644.199 1339.55 644.199C1338.89 644.199 1338.24 644.056 1337.6 643.771C1336.97 643.486 1336.45 643.052 1336.03 642.469C1335.62 641.885 1335.41 641.15 1335.41 640.261V625.068ZM1347.22 634.812V644H1344.88V623.636H1347.22V631.114H1347.42C1347.78 630.325 1348.32 629.698 1349.03 629.234C1349.76 628.764 1350.72 628.528 1351.92 628.528C1352.96 628.528 1353.87 628.737 1354.65 629.155C1355.43 629.566 1356.04 630.199 1356.47 631.054C1356.91 631.902 1357.13 632.983 1357.13 634.295V644H1354.78V634.455C1354.78 633.241 1354.47 632.304 1353.84 631.641C1353.21 630.971 1352.35 630.636 1351.24 630.636C1350.47 630.636 1349.78 630.799 1349.17 631.124C1348.57 631.448 1348.09 631.922 1347.74 632.545C1347.4 633.169 1347.22 633.924 1347.22 634.812ZM1367.82 644.318C1366.35 644.318 1365.08 643.993 1364.02 643.344C1362.96 642.688 1362.14 641.773 1361.56 640.599C1360.99 639.42 1360.71 638.047 1360.71 636.483C1360.71 634.919 1360.99 633.54 1361.56 632.347C1362.14 631.147 1362.94 630.212 1363.97 629.543C1365 628.866 1366.21 628.528 1367.59 628.528C1368.38 628.528 1369.17 628.661 1369.94 628.926C1370.72 629.191 1371.42 629.622 1372.06 630.219C1372.7 630.809 1373.2 631.591 1373.58 632.565C1373.96 633.54 1374.15 634.74 1374.15 636.165V637.159H1362.38V635.131H1371.76C1371.76 634.269 1371.59 633.5 1371.25 632.824C1370.91 632.148 1370.42 631.614 1369.79 631.223C1369.17 630.832 1368.43 630.636 1367.59 630.636C1366.65 630.636 1365.84 630.868 1365.16 631.332C1364.48 631.79 1363.96 632.386 1363.6 633.122C1363.23 633.858 1363.05 634.647 1363.05 635.489V636.841C1363.05 637.994 1363.25 638.972 1363.65 639.774C1364.05 640.57 1364.61 641.176 1365.33 641.594C1366.04 642.005 1366.88 642.21 1367.82 642.21C1368.44 642.21 1369 642.124 1369.5 641.952C1370 641.773 1370.43 641.508 1370.8 641.156C1371.16 640.798 1371.44 640.354 1371.64 639.824L1373.91 640.46C1373.67 641.229 1373.27 641.905 1372.71 642.489C1372.14 643.065 1371.45 643.516 1370.62 643.841C1369.79 644.159 1368.86 644.318 1367.82 644.318ZM1380.06 634.812V644H1377.72V628.727H1379.99V631.114H1380.18C1380.54 630.338 1381.09 629.715 1381.81 629.244C1382.54 628.767 1383.49 628.528 1384.64 628.528C1385.67 628.528 1386.58 628.741 1387.35 629.165C1388.13 629.582 1388.73 630.219 1389.16 631.074C1389.59 631.922 1389.81 632.996 1389.81 634.295V644H1387.46V634.455C1387.46 633.255 1387.15 632.32 1386.53 631.651C1385.9 630.974 1385.05 630.636 1383.96 630.636C1383.21 630.636 1382.54 630.799 1381.95 631.124C1381.37 631.448 1380.91 631.922 1380.57 632.545C1380.23 633.169 1380.06 633.924 1380.06 634.812ZM1400.74 628.727V630.716H1392.82V628.727H1400.74ZM1395.13 625.068H1397.48V639.625C1397.48 640.288 1397.57 640.785 1397.77 641.116C1397.96 641.441 1398.22 641.66 1398.52 641.773C1398.83 641.879 1399.16 641.932 1399.51 641.932C1399.76 641.932 1399.98 641.919 1400.14 641.892C1400.31 641.859 1400.44 641.832 1400.54 641.812L1401.02 643.92C1400.86 643.98 1400.64 644.04 1400.35 644.099C1400.07 644.166 1399.7 644.199 1399.27 644.199C1398.6 644.199 1397.95 644.056 1397.32 643.771C1396.69 643.486 1396.17 643.052 1395.75 642.469C1395.34 641.885 1395.13 641.15 1395.13 640.261V625.068ZM1404.27 644V628.727H1406.62V644H1404.27ZM1405.46 626.182C1405 626.182 1404.61 626.026 1404.28 625.714C1403.95 625.403 1403.79 625.028 1403.79 624.591C1403.79 624.153 1403.95 623.779 1404.28 623.467C1404.61 623.156 1405 623 1405.46 623C1405.92 623 1406.31 623.156 1406.64 623.467C1406.97 623.779 1407.13 624.153 1407.13 624.591C1407.13 625.028 1406.97 625.403 1406.64 625.714C1406.31 626.026 1405.92 626.182 1405.46 626.182ZM1417.12 644.318C1415.69 644.318 1414.45 643.98 1413.42 643.304C1412.38 642.628 1411.59 641.696 1411.03 640.51C1410.48 639.323 1410.2 637.968 1410.2 636.443C1410.2 634.892 1410.48 633.523 1411.05 632.337C1411.63 631.143 1412.43 630.212 1413.46 629.543C1414.49 628.866 1415.7 628.528 1417.08 628.528C1418.15 628.528 1419.12 628.727 1419.98 629.125C1420.84 629.523 1421.55 630.08 1422.1 630.795C1422.65 631.511 1422.99 632.347 1423.12 633.301H1420.78C1420.6 632.605 1420.2 631.989 1419.58 631.452C1418.97 630.908 1418.15 630.636 1417.12 630.636C1416.2 630.636 1415.4 630.875 1414.71 631.352C1414.03 631.823 1413.5 632.489 1413.11 633.351C1412.73 634.206 1412.54 635.21 1412.54 636.364C1412.54 637.544 1412.73 638.571 1413.1 639.446C1413.48 640.321 1414.01 641 1414.69 641.484C1415.38 641.968 1416.19 642.21 1417.12 642.21C1417.73 642.21 1418.28 642.104 1418.78 641.892C1419.28 641.68 1419.7 641.375 1420.04 640.977C1420.39 640.58 1420.63 640.102 1420.78 639.545H1423.12C1422.99 640.447 1422.66 641.259 1422.14 641.982C1421.62 642.697 1420.94 643.268 1420.08 643.692C1419.23 644.109 1418.24 644.318 1417.12 644.318ZM1431.05 644.358C1430.08 644.358 1429.2 644.176 1428.41 643.811C1427.62 643.44 1427 642.906 1426.53 642.21C1426.07 641.508 1425.84 640.659 1425.84 639.665C1425.84 638.79 1426.01 638.08 1426.36 637.537C1426.7 636.987 1427.16 636.556 1427.74 636.244C1428.31 635.933 1428.95 635.701 1429.65 635.548C1430.35 635.389 1431.05 635.263 1431.76 635.17C1432.69 635.051 1433.44 634.962 1434.02 634.902C1434.6 634.836 1435.03 634.726 1435.29 634.574C1435.57 634.421 1435.7 634.156 1435.7 633.778V633.699C1435.7 632.718 1435.43 631.955 1434.9 631.412C1434.37 630.868 1433.56 630.597 1432.48 630.597C1431.36 630.597 1430.48 630.842 1429.85 631.332C1429.21 631.823 1428.76 632.347 1428.5 632.903L1426.28 632.108C1426.67 631.18 1427.2 630.457 1427.87 629.94C1428.54 629.417 1429.27 629.052 1430.05 628.847C1430.85 628.634 1431.63 628.528 1432.4 628.528C1432.89 628.528 1433.45 628.588 1434.09 628.707C1434.73 628.82 1435.35 629.055 1435.95 629.413C1436.55 629.771 1437.05 630.312 1437.45 631.034C1437.85 631.757 1438.05 632.724 1438.05 633.938V644H1435.7V641.932H1435.58C1435.42 642.263 1435.16 642.618 1434.79 642.996C1434.42 643.374 1433.92 643.695 1433.31 643.96C1432.69 644.225 1431.94 644.358 1431.05 644.358ZM1431.41 642.25C1432.33 642.25 1433.12 642.068 1433.75 641.703C1434.4 641.339 1434.88 640.868 1435.2 640.291C1435.54 639.714 1435.7 639.108 1435.7 638.472V636.324C1435.6 636.443 1435.38 636.553 1435.05 636.652C1434.71 636.745 1434.33 636.828 1433.89 636.901C1433.46 636.967 1433.04 637.027 1432.63 637.08C1432.22 637.126 1431.9 637.166 1431.64 637.199C1431.04 637.278 1430.46 637.408 1429.93 637.587C1429.41 637.759 1428.99 638.021 1428.66 638.372C1428.34 638.717 1428.18 639.187 1428.18 639.784C1428.18 640.599 1428.49 641.216 1429.09 641.634C1429.7 642.045 1430.47 642.25 1431.41 642.25ZM1448.97 628.727V630.716H1441.06V628.727H1448.97ZM1443.37 625.068H1445.71V639.625C1445.71 640.288 1445.81 640.785 1446 641.116C1446.2 641.441 1446.45 641.66 1446.76 641.773C1447.07 641.879 1447.4 641.932 1447.74 641.932C1448 641.932 1448.21 641.919 1448.38 641.892C1448.54 641.859 1448.68 641.832 1448.77 641.812L1449.25 643.92C1449.09 643.98 1448.87 644.04 1448.59 644.099C1448.3 644.166 1447.94 644.199 1447.5 644.199C1446.84 644.199 1446.19 644.056 1445.55 643.771C1444.92 643.486 1444.4 643.052 1443.98 642.469C1443.57 641.885 1443.37 641.15 1443.37 640.261V625.068ZM1452.5 644V628.727H1454.85V644H1452.5ZM1453.7 626.182C1453.24 626.182 1452.84 626.026 1452.51 625.714C1452.19 625.403 1452.03 625.028 1452.03 624.591C1452.03 624.153 1452.19 623.779 1452.51 623.467C1452.84 623.156 1453.24 623 1453.7 623C1454.15 623 1454.54 623.156 1454.87 623.467C1455.2 623.779 1455.37 624.153 1455.37 624.591C1455.37 625.028 1455.2 625.403 1454.87 625.714C1454.54 626.026 1454.15 626.182 1453.7 626.182ZM1465.35 644.318C1463.97 644.318 1462.76 643.99 1461.72 643.334C1460.69 642.678 1459.88 641.759 1459.3 640.58C1458.72 639.4 1458.43 638.021 1458.43 636.443C1458.43 634.852 1458.72 633.464 1459.3 632.277C1459.88 631.09 1460.69 630.169 1461.72 629.513C1462.76 628.857 1463.97 628.528 1465.35 628.528C1466.73 628.528 1467.94 628.857 1468.97 629.513C1470.01 630.169 1470.82 631.09 1471.4 632.277C1471.98 633.464 1472.27 634.852 1472.27 636.443C1472.27 638.021 1471.98 639.4 1471.4 640.58C1470.82 641.759 1470.01 642.678 1468.97 643.334C1467.94 643.99 1466.73 644.318 1465.35 644.318ZM1465.35 642.21C1466.4 642.21 1467.26 641.942 1467.94 641.405C1468.61 640.868 1469.11 640.162 1469.44 639.287C1469.76 638.412 1469.93 637.464 1469.93 636.443C1469.93 635.422 1469.76 634.471 1469.44 633.589C1469.11 632.708 1468.61 631.995 1467.94 631.452C1467.26 630.908 1466.4 630.636 1465.35 630.636C1464.3 630.636 1463.44 630.908 1462.77 631.452C1462.09 631.995 1461.59 632.708 1461.27 633.589C1460.94 634.471 1460.78 635.422 1460.78 636.443C1460.78 637.464 1460.94 638.412 1461.27 639.287C1461.59 640.162 1462.09 640.868 1462.77 641.405C1463.44 641.942 1464.3 642.21 1465.35 642.21ZM1478.2 634.812V644H1475.85V628.727H1478.12V631.114H1478.32C1478.68 630.338 1479.22 629.715 1479.95 629.244C1480.68 628.767 1481.62 628.528 1482.78 628.528C1483.81 628.528 1484.71 628.741 1485.49 629.165C1486.27 629.582 1486.87 630.219 1487.3 631.074C1487.73 631.922 1487.95 632.996 1487.95 634.295V644H1485.6V634.455C1485.6 633.255 1485.29 632.32 1484.66 631.651C1484.04 630.974 1483.19 630.636 1482.1 630.636C1481.35 630.636 1480.68 630.799 1480.09 631.124C1479.51 631.448 1479.05 631.922 1478.71 632.545C1478.37 633.169 1478.2 633.924 1478.2 634.812ZM1505.88 644.278C1504.54 644.278 1503.38 644.033 1502.42 643.543C1501.45 643.052 1500.7 642.379 1500.18 641.524C1499.65 640.669 1499.39 639.691 1499.39 638.591C1499.39 637.742 1499.57 636.99 1499.93 636.334C1500.29 635.671 1500.79 635.058 1501.43 634.494C1502.07 633.924 1502.81 633.354 1503.65 632.784L1506.59 630.597C1507.17 630.219 1507.63 629.814 1507.97 629.384C1508.33 628.953 1508.5 628.389 1508.5 627.693C1508.5 627.176 1508.27 626.676 1507.81 626.192C1507.36 625.708 1506.77 625.466 1506.03 625.466C1505.52 625.466 1505.06 625.598 1504.66 625.864C1504.27 626.122 1503.96 626.454 1503.74 626.858C1503.52 627.256 1503.41 627.667 1503.41 628.091C1503.41 628.568 1503.54 629.052 1503.8 629.543C1504.06 630.027 1504.4 630.524 1504.8 631.034C1505.21 631.538 1505.64 632.055 1506.07 632.585L1515.42 644H1512.6L1504.88 634.693C1504.17 633.831 1503.52 633.049 1502.93 632.347C1502.35 631.644 1501.89 630.951 1501.54 630.268C1501.2 629.586 1501.02 628.847 1501.02 628.051C1501.02 627.136 1501.23 626.334 1501.63 625.645C1502.04 624.949 1502.61 624.409 1503.35 624.024C1504.09 623.633 1504.96 623.438 1505.96 623.438C1506.98 623.438 1507.85 623.636 1508.59 624.034C1509.33 624.425 1509.89 624.946 1510.29 625.595C1510.69 626.238 1510.89 626.938 1510.89 627.693C1510.89 628.668 1510.65 629.513 1510.16 630.229C1509.68 630.945 1509.02 631.611 1508.18 632.227L1504.13 635.25C1503.21 635.926 1502.59 636.582 1502.27 637.219C1501.94 637.855 1501.78 638.312 1501.78 638.591C1501.78 639.227 1501.94 639.821 1502.28 640.371C1502.61 640.921 1503.08 641.365 1503.68 641.703C1504.28 642.041 1504.99 642.21 1505.8 642.21C1506.57 642.21 1507.31 642.048 1508.04 641.723C1508.77 641.392 1509.43 640.914 1510.02 640.291C1510.62 639.668 1511.09 638.919 1511.43 638.044C1511.79 637.169 1511.96 636.185 1511.96 635.091H1514.23C1514.23 636.443 1514.07 637.547 1513.76 638.402C1513.45 639.257 1513.1 639.927 1512.71 640.411C1512.32 640.894 1512 641.256 1511.76 641.494C1511.68 641.594 1511.61 641.693 1511.54 641.793C1511.48 641.892 1511.4 641.991 1511.32 642.091C1510.67 642.827 1509.84 643.377 1508.84 643.741C1507.84 644.099 1506.85 644.278 1505.88 644.278ZM1537.35 628.727C1537.23 627.72 1536.75 626.938 1535.9 626.381C1535.05 625.824 1534.01 625.545 1532.77 625.545C1531.87 625.545 1531.08 625.691 1530.41 625.983C1529.74 626.275 1529.21 626.676 1528.84 627.186C1528.47 627.696 1528.28 628.277 1528.28 628.926C1528.28 629.47 1528.41 629.937 1528.67 630.328C1528.93 630.713 1529.27 631.034 1529.68 631.293C1530.09 631.545 1530.52 631.753 1530.97 631.919C1531.43 632.078 1531.84 632.207 1532.22 632.307L1534.29 632.864C1534.82 633.003 1535.41 633.195 1536.06 633.44C1536.71 633.686 1537.34 634.02 1537.94 634.445C1538.54 634.862 1539.04 635.399 1539.43 636.055C1539.82 636.712 1540.01 637.517 1540.01 638.472C1540.01 639.572 1539.72 640.566 1539.15 641.455C1538.58 642.343 1537.74 643.049 1536.64 643.572C1535.55 644.096 1534.22 644.358 1532.66 644.358C1531.2 644.358 1529.93 644.123 1528.87 643.652C1527.81 643.181 1526.97 642.525 1526.36 641.683C1525.76 640.841 1525.42 639.864 1525.34 638.75H1527.88C1527.95 639.519 1528.21 640.155 1528.66 640.659C1529.12 641.156 1529.69 641.527 1530.39 641.773C1531.09 642.011 1531.85 642.131 1532.66 642.131C1533.6 642.131 1534.44 641.978 1535.19 641.673C1535.94 641.362 1536.53 640.931 1536.97 640.381C1537.41 639.824 1537.63 639.174 1537.63 638.432C1537.63 637.756 1537.44 637.205 1537.06 636.781C1536.68 636.357 1536.19 636.012 1535.57 635.747C1534.95 635.482 1534.29 635.25 1533.57 635.051L1531.06 634.335C1529.47 633.878 1528.21 633.225 1527.29 632.376C1526.36 631.528 1525.89 630.418 1525.89 629.045C1525.89 627.905 1526.2 626.911 1526.82 626.062C1527.44 625.207 1528.28 624.545 1529.32 624.074C1530.38 623.597 1531.55 623.358 1532.85 623.358C1534.17 623.358 1535.33 623.593 1536.35 624.064C1537.37 624.528 1538.18 625.164 1538.78 625.973C1539.38 626.782 1539.7 627.7 1539.73 628.727H1537.35ZM1550.15 644.318C1548.68 644.318 1547.41 643.993 1546.34 643.344C1545.28 642.688 1544.47 641.773 1543.89 640.599C1543.32 639.42 1543.03 638.047 1543.03 636.483C1543.03 634.919 1543.32 633.54 1543.89 632.347C1544.47 631.147 1545.27 630.212 1546.29 629.543C1547.33 628.866 1548.54 628.528 1549.91 628.528C1550.71 628.528 1551.5 628.661 1552.27 628.926C1553.05 629.191 1553.75 629.622 1554.39 630.219C1555.02 630.809 1555.53 631.591 1555.91 632.565C1556.29 633.54 1556.48 634.74 1556.48 636.165V637.159H1544.7V635.131H1554.09C1554.09 634.269 1553.92 633.5 1553.57 632.824C1553.24 632.148 1552.75 631.614 1552.12 631.223C1551.5 630.832 1550.76 630.636 1549.91 630.636C1548.98 630.636 1548.17 630.868 1547.49 631.332C1546.81 631.79 1546.29 632.386 1545.93 633.122C1545.56 633.858 1545.38 634.647 1545.38 635.489V636.841C1545.38 637.994 1545.58 638.972 1545.98 639.774C1546.38 640.57 1546.94 641.176 1547.66 641.594C1548.37 642.005 1549.2 642.21 1550.15 642.21C1550.77 642.21 1551.33 642.124 1551.82 641.952C1552.33 641.773 1552.76 641.508 1553.13 641.156C1553.49 640.798 1553.77 640.354 1553.97 639.824L1556.24 640.46C1556 641.229 1555.6 641.905 1555.03 642.489C1554.47 643.065 1553.78 643.516 1552.95 643.841C1552.12 644.159 1551.19 644.318 1550.15 644.318ZM1566.25 644.318C1564.82 644.318 1563.59 643.98 1562.55 643.304C1561.52 642.628 1560.72 641.696 1560.17 640.51C1559.61 639.323 1559.33 637.968 1559.33 636.443C1559.33 634.892 1559.62 633.523 1560.19 632.337C1560.76 631.143 1561.56 630.212 1562.59 629.543C1563.63 628.866 1564.83 628.528 1566.21 628.528C1567.28 628.528 1568.25 628.727 1569.11 629.125C1569.98 629.523 1570.68 630.08 1571.23 630.795C1571.78 631.511 1572.12 632.347 1572.26 633.301H1569.91C1569.73 632.605 1569.33 631.989 1568.72 631.452C1568.11 630.908 1567.28 630.636 1566.25 630.636C1565.34 630.636 1564.53 630.875 1563.84 631.352C1563.16 631.823 1562.63 632.489 1562.24 633.351C1561.87 634.206 1561.68 635.21 1561.68 636.364C1561.68 637.544 1561.86 638.571 1562.23 639.446C1562.61 640.321 1563.14 641 1563.82 641.484C1564.51 641.968 1565.32 642.21 1566.25 642.21C1566.86 642.21 1567.41 642.104 1567.91 641.892C1568.41 641.68 1568.83 641.375 1569.17 640.977C1569.52 640.58 1569.76 640.102 1569.91 639.545H1572.26C1572.12 640.447 1571.8 641.259 1571.27 641.982C1570.75 642.697 1570.07 643.268 1569.21 643.692C1568.37 644.109 1567.38 644.318 1566.25 644.318ZM1585.31 637.756V628.727H1587.66V644H1585.31V641.415H1585.15C1584.79 642.19 1584.24 642.85 1583.48 643.393C1582.73 643.93 1581.77 644.199 1580.62 644.199C1579.66 644.199 1578.82 643.99 1578.07 643.572C1577.33 643.148 1576.75 642.512 1576.32 641.663C1575.9 640.808 1575.69 639.731 1575.69 638.432V628.727H1578.03V638.273C1578.03 639.386 1578.34 640.275 1578.97 640.938C1579.6 641.6 1580.4 641.932 1581.37 641.932C1581.96 641.932 1582.55 641.783 1583.15 641.484C1583.76 641.186 1584.27 640.729 1584.69 640.112C1585.1 639.496 1585.31 638.71 1585.31 637.756ZM1591.96 644V628.727H1594.22V631.034H1594.38C1594.66 630.278 1595.16 629.665 1595.89 629.195C1596.62 628.724 1597.44 628.489 1598.36 628.489C1598.53 628.489 1598.75 628.492 1599.01 628.499C1599.26 628.505 1599.46 628.515 1599.59 628.528V630.915C1599.51 630.895 1599.33 630.865 1599.05 630.825C1598.77 630.779 1598.47 630.756 1598.16 630.756C1597.42 630.756 1596.76 630.911 1596.17 631.223C1595.6 631.528 1595.14 631.952 1594.8 632.496C1594.47 633.033 1594.3 633.646 1594.3 634.335V644H1591.96ZM1602.37 644V628.727H1604.72V644H1602.37ZM1603.57 626.182C1603.11 626.182 1602.72 626.026 1602.38 625.714C1602.06 625.403 1601.9 625.028 1601.9 624.591C1601.9 624.153 1602.06 623.779 1602.38 623.467C1602.72 623.156 1603.11 623 1603.57 623C1604.02 623 1604.42 623.156 1604.74 623.467C1605.07 623.779 1605.24 624.153 1605.24 624.591C1605.24 625.028 1605.07 625.403 1604.74 625.714C1604.42 626.026 1604.02 626.182 1603.57 626.182ZM1615.66 628.727V630.716H1607.75V628.727H1615.66ZM1610.05 625.068H1612.4V639.625C1612.4 640.288 1612.5 640.785 1612.69 641.116C1612.89 641.441 1613.14 641.66 1613.44 641.773C1613.76 641.879 1614.08 641.932 1614.43 641.932C1614.69 641.932 1614.9 641.919 1615.06 641.892C1615.23 641.859 1615.36 641.832 1615.46 641.812L1615.94 643.92C1615.78 643.98 1615.56 644.04 1615.27 644.099C1614.99 644.166 1614.63 644.199 1614.19 644.199C1613.53 644.199 1612.88 644.056 1612.24 643.771C1611.61 643.486 1611.09 643.052 1610.67 642.469C1610.26 641.885 1610.05 641.15 1610.05 640.261V625.068ZM1620.7 649.727C1620.3 649.727 1619.95 649.694 1619.64 649.628C1619.33 649.568 1619.11 649.509 1618.99 649.449L1619.59 647.381C1620.16 647.527 1620.66 647.58 1621.1 647.54C1621.54 647.5 1621.93 647.304 1622.26 646.953C1622.61 646.608 1622.92 646.048 1623.21 645.273L1623.65 644.08L1618 628.727H1620.54L1624.76 640.898H1624.92L1629.13 628.727H1631.68L1625.2 646.227C1624.9 647.016 1624.54 647.669 1624.11 648.186C1623.68 648.71 1623.18 649.098 1622.61 649.349C1622.05 649.601 1621.41 649.727 1620.7 649.727Z" fill="#27272A"/>
</g>
<line x1="469" y1="160" x2="469" y2="800" stroke="#E5E7EB" stroke-width="2" stroke-dasharray="2 2"/>
<line x1="937" y1="160" x2="937" y2="800" stroke="#E5E7EB" stroke-width="2" stroke-dasharray="2 2"/>
<line x1="1405" y1="160" x2="1405" y2="800" stroke="#E5E7EB" stroke-width="2" stroke-dasharray="2 2"/>
<defs>
<filter id="filter0_d_3580_17943" x="12" y="414" width="808" height="140" filterUnits="userSpaceOnUse" color-interpolation-filters="sRGB">
<feFlood flood-opacity="0" result="BackgroundImageFix"/>
<feColorMatrix in="SourceAlpha" type="matrix" values="0 0 0 0 0 0 0 0 0 0 0 0 0 0 0 0 0 0 127 0" result="hardAlpha"/>
<feOffset dy="4"/>
<feGaussianBlur stdDeviation="2"/>
<feComposite in2="hardAlpha" operator="out"/>
<feColorMatrix type="matrix" values="0 0 0 0 0.683333 0 0 0 0 0.683333 0 0 0 0 0.683333 0 0 0 0.25 0"/>
<feBlend mode="normal" in2="BackgroundImageFix" result="effect1_dropShadow_3580_17943"/>
<feBlend mode="normal" in="SourceGraphic" in2="effect1_dropShadow_3580_17943" result="shape"/>
</filter>
<filter id="filter1_d_3580_17943" x="1000" y="232" width="808" height="140" filterUnits="userSpaceOnUse" color-interpolation-filters="sRGB">
<feFlood flood-opacity="0" result="BackgroundImageFix"/>
<feColorMatrix in="SourceAlpha" type="matrix" values="0 0 0 0 0 0 0 0 0 0 0 0 0 0 0 0 0 0 127 0" result="hardAlpha"/>
<feOffset dy="4"/>
<feGaussianBlur stdDeviation="2"/>
<feComposite in2="hardAlpha" operator="out"/>
<feColorMatrix type="matrix" values="0 0 0 0 0.683333 0 0 0 0 0.683333 0 0 0 0 0.683333 0 0 0 0.25 0"/>
<feBlend mode="normal" in2="BackgroundImageFix" result="effect1_dropShadow_3580_17943"/>
<feBlend mode="normal" in="SourceGraphic" in2="effect1_dropShadow_3580_17943" result="shape"/>
</filter>
<filter id="filter2_d_3580_17943" x="1142" y="546" width="808" height="140" filterUnits="userSpaceOnUse" color-interpolation-filters="sRGB">
<feFlood flood-opacity="0" result="BackgroundImageFix"/>
<feColorMatrix in="SourceAlpha" type="matrix" values="0 0 0 0 0 0 0 0 0 0 0 0 0 0 0 0 0 0 127 0" result="hardAlpha"/>
<feOffset dy="4"/>
<feGaussianBlur stdDeviation="2"/>
<feComposite in2="hardAlpha" operator="out"/>
<feColorMatrix type="matrix" values="0 0 0 0 0.683333 0 0 0 0 0.683333 0 0 0 0 0.683333 0 0 0 0.25 0"/>
<feBlend mode="normal" in2="BackgroundImageFix" result="effect1_dropShadow_3580_17943"/>
<feBlend mode="normal" in="SourceGraphic" in2="effect1_dropShadow_3580_17943" result="shape"/>
</filter>
</defs>
</svg>
